<svg width="128" height="128" viewBox="0 0 128 128" fill="none" xmlns="http://www.w3.org/2000/svg">
<path d="M75.9107 33.124L91.5666 41.9265L76.3019 50.6229L61.1757 41.7252L75.9107 33.124Z" fill="#77C0D4"/>
<path d="M91.5348 41.9261L91.5349 59.5199L76.1688 68.4176L76.1688 50.3732L91.5348 41.9261Z" fill="#11778D"/>
<path d="M61.1758 41.727L61.1758 59.2259L76.1537 68.4203L76.1537 50.3758L61.1758 41.727Z" fill="#183342"/>
<path d="M98.8963 45.8291L114.552 54.6315L99.2875 63.328L84.1613 54.4302L98.8963 45.8291Z" fill="#77C0D4"/>
<path d="M114.521 54.6312L114.521 72.225L99.1545 81.1227L99.1545 63.0783L114.521 54.6312Z" fill="#11778D"/>
<path d="M84.1616 54.4282L84.1616 71.9271L99.1395 81.1214L99.1395 63.077L84.1616 54.4282Z" fill="#183342"/>
<path d="M76.5037 59.2217L92.1596 68.0241L76.8949 76.7206L61.7688 67.8228L76.5037 59.2217Z" fill="#77C0D4"/>
<path d="M92.1279 68.0237L92.1279 85.6176L76.7618 94.5153L76.7618 76.4709L92.1279 68.0237Z" fill="#11778D"/>
<path d="M61.7688 67.8208L61.7688 85.3197L76.7467 94.514L76.7467 76.4696L61.7688 67.8208Z" fill="#183342"/>
<path d="M53.9628 72.2734L69.6187 81.0759L54.354 89.7723L39.2279 80.8746L53.9628 72.2734Z" fill="#77C0D4"/>
<path d="M69.5868 81.0755L69.5869 98.6693L54.2208 107.567L54.2208 89.5226L69.5868 81.0755Z" fill="#11778D"/>
<path d="M39.2278 80.8745L39.2278 98.3734L54.2057 107.568L54.2057 89.5233L39.2278 80.8745Z" fill="#183342"/>
<path d="M30.8288 84.7334L46.4847 93.5358L31.22 102.232L16.0938 93.3345L30.8288 84.7334Z" fill="#77C0D4"/>
<path d="M46.4529 93.5394L46.453 111.133L31.0868 120.031L31.0868 101.986L46.4529 93.5394Z" fill="#11778D"/>
<path d="M16.0938 93.3364L16.0938 110.835L31.0716 120.03L31.0716 101.985L16.0938 93.3364Z" fill="#183342"/>
<path d="M30.8288 59.2217L46.4847 68.0241L31.22 76.7206L16.0938 67.8228L30.8288 59.2217Z" fill="#77C0D4"/>
<path d="M46.4529 68.0237L46.453 85.6176L31.0868 94.5153L31.0868 76.4709L46.4529 68.0237Z" fill="#11778D"/>
<path d="M16.0938 67.8208L16.0938 85.3197L31.0716 94.514L31.0716 76.4696L16.0938 67.8208Z" fill="#183342"/>
<path d="M30.8288 33.124L46.4847 41.9265L31.22 50.6229L16.0938 41.7252L30.8288 33.124Z" fill="#77C0D4"/>
<path d="M46.4529 41.9261L46.453 59.5199L31.0868 68.4176L31.0868 50.3732L46.4529 41.9261Z" fill="#11778D"/>
<path d="M16.0938 41.727L16.0938 59.2259L31.0716 68.4203L31.0716 50.3758L16.0938 41.727Z" fill="#183342"/>
<path d="M30.8288 7.02244L46.4847 15.8249L31.22 24.5213L16.0938 15.6236L30.8288 7.02244Z" fill="#77C0D4"/>
<path d="M46.4529 15.8245L46.453 33.4183L31.0868 42.3161L31.0868 24.2717L46.4529 15.8245Z" fill="#11778D"/>
<path d="M16.0938 15.6255L16.0938 33.1244L31.0716 42.3187L31.0716 24.2743L16.0938 15.6255Z" fill="#183342"/>
<path d="M53.9627 20.0771L69.6186 28.8796L54.3539 37.576L39.2277 28.6783L53.9627 20.0771Z" fill="#77C0D4"/>
<path d="M69.5868 28.8792L69.5869 46.473L54.2208 55.3708L54.2208 37.3263L69.5868 28.8792Z" fill="#11778D"/>
<path d="M39.2278 28.6763L39.2278 46.1752L54.2057 55.3695L54.2057 37.3251L39.2278 28.6763Z" fill="#183342"/>
<path d="M75.9106 33.1279L91.5664 41.9304L76.3018 50.6268L61.1756 41.7291L75.9106 33.1279Z" fill="#77C0D4"/>
<path d="M61.1757 41.727L61.1757 59.2259L73.4842 59.2259L76.1536 50.3758L61.1757 41.727Z" fill="#183342"/>
</svg>
