<svg width="632" height="128" viewBox="0 0 632 128" fill="none" xmlns="http://www.w3.org/2000/svg">
<path d="M166.746 88.6941C163.532 88.6941 160.55 88.1907 157.8 87.1838C155.089 86.1381 152.727 84.6664 150.713 82.7688C148.738 80.8711 147.189 78.6442 146.065 76.0882C144.942 73.4934 144.381 70.6469 144.381 67.5487C144.381 64.4504 144.942 61.6233 146.065 59.0673C147.189 56.4725 148.738 54.2263 150.713 52.3286C152.727 50.4309 155.089 48.9786 157.8 47.9717C160.55 46.926 163.532 46.4032 166.746 46.4032C170.503 46.4032 173.853 47.0616 176.796 48.3783C179.778 49.6951 182.257 51.5928 184.232 54.0714L176.912 60.6938C175.595 59.1447 174.143 57.9635 172.555 57.1502C171.006 56.3369 169.263 55.9303 167.327 55.9303C165.662 55.9303 164.132 56.2014 162.738 56.7436C161.344 57.2858 160.143 58.0797 159.136 59.1254C158.168 60.1323 157.393 61.3522 156.812 62.7851C156.27 64.2181 155.999 65.8059 155.999 67.5487C155.999 69.2914 156.27 70.8793 156.812 72.3122C157.393 73.7452 158.168 74.9845 159.136 76.0301C160.143 77.037 161.344 77.8116 162.738 78.3538C164.132 78.896 165.662 79.1671 167.327 79.1671C169.263 79.1671 171.006 78.7604 172.555 77.9471C174.143 77.1339 175.595 75.9526 176.912 74.4035L184.232 81.026C182.257 83.4659 179.778 85.3635 176.796 86.719C173.853 88.0358 170.503 88.6941 166.746 88.6941ZM203.617 88.4037C200.171 88.4037 197.111 87.7066 194.439 86.3124C191.767 84.9182 189.656 83.0011 188.107 80.5613C186.596 78.0827 185.841 75.2555 185.841 72.0799C185.841 68.9042 186.596 66.0964 188.107 63.6565C189.656 61.2167 191.767 59.319 194.439 57.9635C197.111 56.5693 200.171 55.8722 203.617 55.8722C207.064 55.8722 210.124 56.5693 212.796 57.9635C215.507 59.319 217.617 61.2167 219.128 63.6565C220.638 66.0964 221.393 68.9042 221.393 72.0799C221.393 75.2555 220.638 78.0827 219.128 80.5613C217.617 83.0011 215.507 84.9182 212.796 86.3124C210.124 87.7066 207.064 88.4037 203.617 88.4037ZM203.617 79.6318C204.895 79.6318 206.018 79.3413 206.987 78.7604C207.994 78.1795 208.787 77.3275 209.368 76.2044C209.949 75.0425 210.24 73.6677 210.24 72.0799C210.24 70.492 209.949 69.1559 209.368 68.0715C208.787 66.9484 207.994 66.0964 206.987 65.5155C206.018 64.9345 204.895 64.6441 203.617 64.6441C202.378 64.6441 201.255 64.9345 200.248 65.5155C199.28 66.0964 198.486 66.9484 197.866 68.0715C197.285 69.1559 196.995 70.492 196.995 72.0799C196.995 73.6677 197.285 75.0425 197.866 76.2044C198.486 77.3275 199.28 78.1795 200.248 78.7604C201.255 79.3413 202.378 79.6318 203.617 79.6318ZM247.013 55.8722C249.453 55.8722 251.66 56.3757 253.635 57.3826C255.61 58.3508 257.16 59.8612 258.283 61.9138C259.445 63.9663 260.025 66.6192 260.025 69.8724V87.8809H248.988V71.6732C248.988 69.427 248.523 67.8004 247.594 66.7935C246.703 65.7478 245.444 65.225 243.818 65.225C242.656 65.225 241.591 65.4961 240.623 66.0383C239.655 66.5418 238.899 67.3357 238.357 68.4201C237.815 69.5044 237.544 70.918 237.544 72.6608V87.8809H226.506V56.395H237.021V65.3412L234.988 62.7271C236.188 60.4421 237.834 58.7381 239.926 57.615C242.017 56.4531 244.379 55.8722 247.013 55.8722ZM281.013 88.4037C276.986 88.4037 273.849 87.4161 271.603 85.441C269.356 83.4271 268.233 80.4064 268.233 76.3787V49.3659H279.271V76.2625C279.271 77.3856 279.581 78.2763 280.2 78.9347C280.82 79.5543 281.614 79.8642 282.582 79.8642C283.899 79.8642 285.022 79.535 285.951 78.8766L288.682 86.6028C287.752 87.2225 286.61 87.6679 285.254 87.939C283.899 88.2488 282.485 88.4037 281.013 88.4037ZM263.644 65.8059V57.5569H286.474V65.8059H263.644ZM292.938 87.8809V56.395H303.975V87.8809H292.938ZM298.456 52.9095C296.443 52.9095 294.816 52.348 293.577 51.2248C292.337 50.1017 291.718 48.7075 291.718 47.0422C291.718 45.3769 292.337 43.9827 293.577 42.8596C294.816 41.7365 296.443 41.1749 298.456 41.1749C300.47 41.1749 302.097 41.7171 303.336 42.8015C304.575 43.8472 305.195 45.2027 305.195 46.868C305.195 48.6107 304.575 50.063 303.336 51.2248C302.136 52.348 300.509 52.9095 298.456 52.9095ZM331.655 55.8722C334.094 55.8722 336.302 56.3757 338.277 57.3826C340.252 58.3508 341.801 59.8612 342.924 61.9138C344.086 63.9663 344.667 66.6192 344.667 69.8724V87.8809H333.63V71.6732C333.63 69.427 333.165 67.8004 332.236 66.7935C331.345 65.7478 330.086 65.225 328.46 65.225C327.298 65.225 326.233 65.4961 325.265 66.0383C324.296 66.5418 323.541 67.3357 322.999 68.4201C322.457 69.5044 322.186 70.918 322.186 72.6608V87.8809H311.148V56.395H321.663V65.3412L319.63 62.7271C320.83 60.4421 322.476 58.7381 324.567 57.615C326.659 56.4531 329.021 55.8722 331.655 55.8722ZM364.842 88.4037C362.286 88.4037 359.982 87.9002 357.929 86.8933C355.915 85.8864 354.327 84.3179 353.165 82.1878C352.042 80.0191 351.481 77.2888 351.481 73.9969V56.395H362.518V72.196C362.518 74.6359 362.964 76.3787 363.854 77.4243C364.784 78.47 366.081 78.9928 367.747 78.9928C368.831 78.9928 369.818 78.7411 370.709 78.2376C371.6 77.7341 372.316 76.9402 372.859 75.8558C373.401 74.7327 373.672 73.2998 373.672 71.557V56.395H384.709V87.8809H374.195V78.9928L376.228 81.4907C375.144 83.8144 373.575 85.5572 371.522 86.719C369.47 87.8421 367.243 88.4037 364.842 88.4037ZM405.064 88.4037C402.508 88.4037 400.203 87.9002 398.151 86.8933C396.137 85.8864 394.549 84.3179 393.387 82.1878C392.264 80.0191 391.703 77.2888 391.703 73.9969V56.395H402.74V72.196C402.74 74.6359 403.185 76.3787 404.076 77.4243C405.006 78.47 406.303 78.9928 407.968 78.9928C409.053 78.9928 410.04 78.7411 410.931 78.2376C411.822 77.7341 412.538 76.9402 413.08 75.8558C413.623 74.7327 413.894 73.2998 413.894 71.557V56.395H424.931V87.8809H414.417V78.9928L416.45 81.4907C415.365 83.8144 413.797 85.5572 411.744 86.719C409.692 87.8421 407.465 88.4037 405.064 88.4037ZM473.054 55.8722C475.493 55.8722 477.662 56.3757 479.56 57.3826C481.496 58.3508 483.007 59.8612 484.091 61.9138C485.214 63.9663 485.776 66.6192 485.776 69.8724V87.8809H474.738V71.6732C474.738 69.427 474.312 67.8004 473.46 66.7935C472.608 65.7478 471.446 65.225 469.975 65.225C468.929 65.225 467.98 65.4767 467.128 65.9802C466.276 66.4837 465.618 67.2582 465.153 68.3039C464.688 69.3108 464.456 70.6276 464.456 72.2541V87.8809H453.418V71.6732C453.418 69.427 452.992 67.8004 452.14 66.7935C451.327 65.7478 450.165 65.225 448.655 65.225C447.571 65.225 446.602 65.4767 445.75 65.9802C444.937 66.4837 444.279 67.2582 443.775 68.3039C443.31 69.3108 443.078 70.6276 443.078 72.2541V87.8809H432.041V56.395H442.555V65.1669L440.464 62.669C441.626 60.4227 443.214 58.7381 445.228 57.615C447.241 56.4531 449.488 55.8722 451.966 55.8722C454.793 55.8722 457.272 56.608 459.402 58.0797C461.571 59.5126 463.023 61.7589 463.759 64.8184L460.157 64.0632C461.28 61.5071 462.965 59.5126 465.211 58.0797C467.496 56.608 470.11 55.8722 473.054 55.8722ZM493.265 87.8809V47.2165H512.493C516.986 47.2165 520.936 48.0492 524.344 49.7145C527.752 51.3798 530.405 53.7228 532.303 56.7436C534.239 59.7644 535.207 63.3661 535.207 67.5487C535.207 71.6926 534.239 75.2943 532.303 78.3538C530.405 81.3746 527.752 83.7176 524.344 85.3829C520.936 87.0482 516.986 87.8809 512.493 87.8809H493.265ZM504.767 78.7023H512.029C514.352 78.7023 516.366 78.2763 518.07 77.4243C519.813 76.5336 521.169 75.2555 522.137 73.5902C523.105 71.8862 523.589 69.8724 523.589 67.5487C523.589 65.1863 523.105 63.1724 522.137 61.5071C521.169 59.8418 519.813 58.5832 518.07 57.7311C516.366 56.8404 514.352 56.395 512.029 56.395H504.767V78.7023ZM535.812 87.8809L553.762 47.2165H565.09L583.099 87.8809H571.132L557.074 52.8514H561.605L547.546 87.8809H535.812ZM545.629 79.9804L548.592 71.4989H568.46L571.422 79.9804H545.629ZM606.299 88.6941C603.046 88.6941 600.044 88.1713 597.294 87.1257C594.545 86.08 592.144 84.6083 590.091 82.7107C588.077 80.7743 586.509 78.5281 585.386 75.972C584.263 73.416 583.701 70.6082 583.701 67.5487C583.701 64.4892 584.263 61.6814 585.386 59.1254C586.509 56.5693 588.077 54.3424 590.091 52.4448C592.144 50.5084 594.545 49.0174 597.294 47.9717C600.044 46.926 603.046 46.4032 606.299 46.4032C609.591 46.4032 612.592 46.926 615.303 47.9717C618.053 49.0174 620.434 50.5084 622.448 52.4448C624.462 54.3424 626.031 56.5693 627.154 59.1254C628.316 61.6814 628.897 64.4892 628.897 67.5487C628.897 70.6082 628.316 73.4353 627.154 76.0301C626.031 78.5861 624.462 80.813 622.448 82.7107C620.434 84.6083 618.053 86.08 615.303 87.1257C612.592 88.1713 609.591 88.6941 606.299 88.6941ZM606.299 79.1671C607.848 79.1671 609.281 78.896 610.598 78.3538C611.953 77.8116 613.115 77.037 614.083 76.0301C615.09 74.9845 615.865 73.7452 616.407 72.3122C616.988 70.8793 617.278 69.2914 617.278 67.5487C617.278 65.7672 616.988 64.1794 616.407 62.7851C615.865 61.3522 615.09 60.1323 614.083 59.1254C613.115 58.0797 611.953 57.2858 610.598 56.7436C609.281 56.2014 607.848 55.9303 606.299 55.9303C604.75 55.9303 603.297 56.2014 601.942 56.7436C600.625 57.2858 599.463 58.0797 598.456 59.1254C597.488 60.1323 596.714 61.3522 596.133 62.7851C595.59 64.1794 595.319 65.7672 595.319 67.5487C595.319 69.2914 595.59 70.8793 596.133 72.3122C596.714 73.7452 597.488 74.9845 598.456 76.0301C599.463 77.037 600.625 77.8116 601.942 78.3538C603.297 78.896 604.75 79.1671 606.299 79.1671Z" fill="white"/>
<path d="M71.9647 33.6704L88.3965 42.9092L72.3753 52.0367L56.4994 42.6979L71.9647 33.6704Z" fill="#77C0D4"/>
<path d="M88.3632 42.9089L88.3633 61.3748L72.2355 70.7136L72.2355 51.7747L88.3632 42.9089Z" fill="#11778D"/>
<path d="M56.4994 42.6993V61.0656L72.2197 70.7157L72.2197 51.7768L56.4994 42.6993Z" fill="#183342"/>
<path d="M96.0898 47.0063L112.522 56.2451L96.5004 65.3726L80.6245 56.0338L96.0898 47.0063Z" fill="#77C0D4"/>
<path d="M112.488 56.2458L112.488 74.7117L96.3606 84.0505L96.3606 65.1117L112.488 56.2458Z" fill="#11778D"/>
<path d="M80.6245 56.0343V74.4006L96.3448 84.0507L96.3448 65.1118L80.6245 56.0343Z" fill="#183342"/>
<path d="M72.5872 61.063L89.019 70.3018L72.9978 79.4293L57.1219 70.0905L72.5872 61.063Z" fill="#77C0D4"/>
<path d="M88.9858 70.3015L88.9858 88.7674L72.8581 98.1062L72.8581 79.1673L88.9858 70.3015Z" fill="#11778D"/>
<path d="M57.1219 70.089V88.4553L72.8421 98.1054L72.8421 79.1665L57.1219 70.089Z" fill="#183342"/>
<path d="M48.9292 74.7602L65.361 83.999L49.3398 93.1265L33.4639 83.7877L48.9292 74.7602Z" fill="#77C0D4"/>
<path d="M65.3278 83.9997L65.3278 102.466L49.2001 111.804L49.2001 92.8656L65.3278 83.9997Z" fill="#11778D"/>
<path d="M33.464 83.7892V102.155L49.1842 111.806L49.1842 92.8667L33.464 83.7892Z" fill="#183342"/>
<path d="M24.6483 87.8335L41.0802 97.0723L25.0589 106.2L9.18305 96.861L24.6483 87.8335Z" fill="#77C0D4"/>
<path d="M41.0469 97.0739L41.047 115.54L24.9192 124.879L24.9192 105.94L41.0469 97.0739Z" fill="#11778D"/>
<path d="M9.18307 96.8614V115.228L24.9033 124.878L24.9033 105.939L9.18307 96.8614Z" fill="#183342"/>
<path d="M24.6483 61.063L41.0802 70.3018L25.0589 79.4293L9.18305 70.0905L24.6483 61.063Z" fill="#77C0D4"/>
<path d="M41.0469 70.3015L41.0469 88.7674L24.9192 98.1062L24.9192 79.1673L41.0469 70.3015Z" fill="#11778D"/>
<path d="M9.18313 70.089V88.4553L24.9034 98.1054L24.9034 79.1665L9.18313 70.089Z" fill="#183342"/>
<path d="M24.6483 33.6704L41.0802 42.9092L25.0589 52.0367L9.18305 42.6979L24.6483 33.6704Z" fill="#77C0D4"/>
<path d="M41.0469 42.9089L41.047 61.3748L24.9192 70.7136L24.9192 51.7747L41.0469 42.9089Z" fill="#11778D"/>
<path d="M9.18313 42.6993V61.0656L24.9034 70.7157L24.9034 51.7768L9.18313 42.6993Z" fill="#183342"/>
<path d="M24.6483 6.27586L41.0802 15.5147L25.0589 24.6422L9.18305 15.3034L24.6483 6.27586Z" fill="#77C0D4"/>
<path d="M41.0469 15.5144L41.047 33.9803L24.9192 43.3191L24.9192 24.3802L41.0469 15.5144Z" fill="#11778D"/>
<path d="M9.18313 15.3028V33.6691L24.9034 43.3192L24.9034 24.3804L9.18313 15.3028Z" fill="#183342"/>
<path d="M48.9292 19.9731L65.361 29.2119L49.3398 38.3394L33.4639 29.0006L48.9292 19.9731Z" fill="#77C0D4"/>
<path d="M65.3277 29.2116L65.3277 47.6775L49.2 57.0163L49.2 38.0775L65.3277 29.2116Z" fill="#11778D"/>
<path d="M33.4639 28.9991V47.3654L49.1841 57.0155L49.1842 38.0766L33.4639 28.9991Z" fill="#183342"/>
<path d="M71.9647 33.6704L88.3966 42.9092L72.3754 52.0367L56.4995 42.6979L71.9647 33.6704Z" fill="#77C0D4"/>
<path d="M56.4995 42.6964V61.0627H69.4181L72.2197 51.7739L56.4995 42.6964Z" fill="#183342"/>
</svg>
