<svg width="317" height="64" viewBox="0 0 317 64" fill="none" xmlns="http://www.w3.org/2000/svg">
<path d="M83.3731 44.3471C81.7659 44.3471 80.2748 44.0953 78.9 43.5919C77.5445 43.0691 76.3633 42.3332 75.3564 41.3844C74.3688 40.4355 73.5943 39.3221 73.0327 38.0441C72.4712 36.7467 72.1904 35.3235 72.1904 33.7743C72.1904 32.2252 72.4712 30.8117 73.0327 29.5336C73.5943 28.2362 74.3688 27.1131 75.3564 26.1643C76.3633 25.2155 77.5445 24.4893 78.9 23.9859C80.2748 23.463 81.7659 23.2016 83.3731 23.2016C85.2514 23.2016 86.9264 23.5308 88.398 24.1892C89.8891 24.8475 91.1284 25.7964 92.1159 27.0357L88.4561 30.3469C87.7977 29.5724 87.0716 28.9818 86.2777 28.5751C85.5031 28.1685 84.6317 27.9651 83.6635 27.9651C82.8309 27.9651 82.066 28.1007 81.3689 28.3718C80.6718 28.6429 80.0715 29.0398 79.5681 29.5627C79.084 30.0661 78.6967 30.6761 78.4062 31.3926C78.1351 32.109 77.9996 32.903 77.9996 33.7743C77.9996 34.6457 78.1351 35.4396 78.4062 36.1561C78.6967 36.8726 79.084 37.4922 79.5681 38.0151C80.0715 38.5185 80.6718 38.9058 81.3689 39.1769C82.066 39.448 82.8309 39.5835 83.6635 39.5835C84.6317 39.5835 85.5031 39.3802 86.2777 38.9736C87.0716 38.5669 87.7977 37.9763 88.4561 37.2018L92.1159 40.513C91.1284 41.7329 89.8891 42.6818 88.398 43.3595C86.9264 44.0179 85.2514 44.3471 83.3731 44.3471ZM101.809 44.2018C100.085 44.2018 98.5555 43.8533 97.2194 43.1562C95.8833 42.4591 94.8279 41.5006 94.0534 40.2806C93.2982 39.0413 92.9206 37.6278 92.9206 36.0399C92.9206 34.4521 93.2982 33.0482 94.0534 31.8283C94.8279 30.6083 95.8833 29.6595 97.2194 28.9818C98.5555 28.2847 100.085 27.9361 101.809 27.9361C103.532 27.9361 105.062 28.2847 106.398 28.9818C107.753 29.6595 108.809 30.6083 109.564 31.8283C110.319 33.0482 110.697 34.4521 110.697 36.0399C110.697 37.6278 110.319 39.0413 109.564 40.2806C108.809 41.5006 107.753 42.4591 106.398 43.1562C105.062 43.8533 103.532 44.2018 101.809 44.2018ZM101.809 39.8159C102.448 39.8159 103.009 39.6707 103.493 39.3802C103.997 39.0898 104.394 38.6637 104.684 38.1022C104.975 37.5213 105.12 36.8338 105.12 36.0399C105.12 35.246 104.975 34.5779 104.684 34.0358C104.394 33.4742 103.997 33.0482 103.493 32.7577C103.009 32.4673 102.448 32.322 101.809 32.322C101.189 32.322 100.627 32.4673 100.124 32.7577C99.6399 33.0482 99.2429 33.4742 98.9331 34.0358C98.6426 34.5779 98.4974 35.246 98.4974 36.0399C98.4974 36.8338 98.6426 37.5213 98.9331 38.1022C99.2429 38.6637 99.6399 39.0898 100.124 39.3802C100.627 39.6707 101.189 39.8159 101.809 39.8159ZM123.506 27.9361C124.726 27.9361 125.83 28.1878 126.818 28.6913C127.805 29.1754 128.58 29.9306 129.141 30.9569C129.722 31.9832 130.013 33.3096 130.013 34.9362V43.9404H124.494V35.8366C124.494 34.7135 124.262 33.9002 123.797 33.3967C123.352 32.8739 122.722 32.6125 121.909 32.6125C121.328 32.6125 120.795 32.7481 120.311 33.0191C119.827 33.2709 119.45 33.6678 119.179 34.21C118.907 34.7522 118.772 35.459 118.772 36.3304V43.9404H113.253V28.1975H118.511V32.6706L117.494 31.3635C118.094 30.2211 118.917 29.369 119.963 28.8075C121.008 28.2266 122.19 27.9361 123.506 27.9361ZM140.507 44.2018C138.493 44.2018 136.924 43.7081 135.801 42.7205C134.678 41.7136 134.117 40.2032 134.117 38.1893V24.683H139.635V38.1312C139.635 38.6928 139.79 39.1382 140.1 39.4674C140.41 39.7772 140.807 39.9321 141.291 39.9321C141.949 39.9321 142.511 39.7675 142.976 39.4383L144.341 43.3014C143.876 43.6112 143.305 43.8339 142.627 43.9695C141.949 44.1244 141.243 44.2018 140.507 44.2018ZM131.822 32.903V28.7784H143.237V32.903H131.822ZM146.469 43.9404V28.1975H151.988V43.9404H146.469ZM149.228 26.4548C148.221 26.4548 147.408 26.174 146.788 25.6124C146.169 25.0509 145.859 24.3538 145.859 23.5211C145.859 22.6885 146.169 21.9914 146.788 21.4298C147.408 20.8683 148.221 20.5875 149.228 20.5875C150.235 20.5875 151.048 20.8586 151.668 21.4008C152.288 21.9236 152.598 22.6013 152.598 23.434C152.598 24.3054 152.288 25.0315 151.668 25.6124C151.068 26.174 150.255 26.4548 149.228 26.4548ZM165.827 27.9361C167.047 27.9361 168.151 28.1878 169.139 28.6913C170.126 29.1754 170.901 29.9306 171.462 30.9569C172.043 31.9832 172.334 33.3096 172.334 34.9362V43.9404H166.815V35.8366C166.815 34.7135 166.583 33.9002 166.118 33.3967C165.672 32.8739 165.043 32.6125 164.23 32.6125C163.649 32.6125 163.116 32.7481 162.632 33.0191C162.148 33.2709 161.771 33.6678 161.499 34.21C161.228 34.7522 161.093 35.459 161.093 36.3304V43.9404H155.574V28.1975H160.831V32.6706L159.815 31.3635C160.415 30.2211 161.238 29.369 162.284 28.8075C163.329 28.2266 164.511 27.9361 165.827 27.9361ZM182.421 44.2018C181.143 44.2018 179.991 43.9501 178.964 43.4466C177.958 42.9432 177.164 42.1589 176.583 41.0939C176.021 40.0095 175.74 38.6444 175.74 36.9984V28.1975H181.259V36.098C181.259 37.3179 181.482 38.1893 181.927 38.7122C182.392 39.235 183.041 39.4964 183.873 39.4964C184.415 39.4964 184.909 39.3705 185.355 39.1188C185.8 38.8671 186.158 38.4701 186.429 37.9279C186.7 37.3664 186.836 36.6499 186.836 35.7785V28.1975H192.355V43.9404H187.097V39.4964L188.114 40.7454C187.572 41.9072 186.788 42.7786 185.761 43.3595C184.735 43.9211 183.622 44.2018 182.421 44.2018ZM202.532 44.2018C201.254 44.2018 200.102 43.9501 199.075 43.4466C198.068 42.9432 197.275 42.1589 196.694 41.0939C196.132 40.0095 195.851 38.6444 195.851 36.9984V28.1975H201.37V36.098C201.37 37.3179 201.593 38.1893 202.038 38.7122C202.503 39.235 203.152 39.4964 203.984 39.4964C204.526 39.4964 205.02 39.3705 205.466 39.1188C205.911 38.8671 206.269 38.4701 206.54 37.9279C206.811 37.3664 206.947 36.6499 206.947 35.7785V28.1975H212.466V43.9404H207.208V39.4964L208.225 40.7454C207.683 41.9072 206.898 42.7786 205.872 43.3595C204.846 43.9211 203.732 44.2018 202.532 44.2018ZM236.527 27.9361C237.747 27.9361 238.831 28.1878 239.78 28.6913C240.748 29.1754 241.503 29.9306 242.046 30.9569C242.607 31.9832 242.888 33.3096 242.888 34.9362V43.9404H237.369V35.8366C237.369 34.7135 237.156 33.9002 236.73 33.3967C236.304 32.8739 235.723 32.6125 234.987 32.6125C234.465 32.6125 233.99 32.7384 233.564 32.9901C233.138 33.2418 232.809 33.6291 232.577 34.1519C232.344 34.6554 232.228 35.3138 232.228 36.1271V43.9404H226.709V35.8366C226.709 34.7135 226.496 33.9002 226.07 33.3967C225.664 32.8739 225.083 32.6125 224.327 32.6125C223.785 32.6125 223.301 32.7384 222.875 32.9901C222.469 33.2418 222.139 33.6291 221.888 34.1519C221.655 34.6554 221.539 35.3138 221.539 36.1271V43.9404H216.02V28.1975H221.278V32.5835L220.232 31.3345C220.813 30.2114 221.607 29.369 222.614 28.8075C223.621 28.2266 224.744 27.9361 225.983 27.9361C227.397 27.9361 228.636 28.304 229.701 29.0398C230.785 29.7563 231.512 30.8794 231.879 32.4092L230.079 32.0316C230.64 30.7536 231.482 29.7563 232.606 29.0398C233.748 28.304 235.055 27.9361 236.527 27.9361ZM246.633 43.9404V23.6083H256.247C258.493 23.6083 260.468 24.0246 262.172 24.8572C263.876 25.6899 265.203 26.8614 266.151 28.3718C267.12 29.8822 267.604 31.683 267.604 33.7743C267.604 35.8463 267.12 37.6471 266.151 39.1769C265.203 40.6873 263.876 41.8588 262.172 42.6915C260.468 43.5241 258.493 43.9404 256.247 43.9404H246.633ZM252.384 39.3512H256.014C257.176 39.3512 258.183 39.1382 259.035 38.7122C259.907 38.2668 260.584 37.6278 261.068 36.7951C261.552 35.9431 261.795 34.9362 261.795 33.7743C261.795 32.5931 261.552 31.5862 261.068 30.7536C260.584 29.9209 259.907 29.2916 259.035 28.8656C258.183 28.4202 257.176 28.1975 256.014 28.1975H252.384V39.3512ZM267.906 43.9404L276.881 23.6083H282.545L291.549 43.9404H285.566L278.537 26.4257H280.802L273.773 43.9404H267.906ZM272.815 39.9902L274.296 35.7495H284.23L285.711 39.9902H272.815ZM303.149 44.3471C301.523 44.3471 300.022 44.0857 298.647 43.5628C297.272 43.04 296.072 42.3042 295.046 41.3553C294.039 40.3871 293.254 39.264 292.693 37.986C292.131 36.708 291.85 35.3041 291.85 33.7743C291.85 32.2446 292.131 30.8407 292.693 29.5627C293.254 28.2847 294.039 27.1712 295.046 26.2224C296.072 25.2542 297.272 24.5087 298.647 23.9859C300.022 23.463 301.523 23.2016 303.149 23.2016C304.795 23.2016 306.296 23.463 307.651 23.9859C309.026 24.5087 310.217 25.2542 311.224 26.2224C312.231 27.1712 313.015 28.2847 313.577 29.5627C314.158 30.8407 314.448 32.2446 314.448 33.7743C314.448 35.3041 314.158 36.7177 313.577 38.0151C313.015 39.2931 312.231 40.4065 311.224 41.3553C310.217 42.3042 309.026 43.04 307.651 43.5628C306.296 44.0857 304.795 44.3471 303.149 44.3471ZM303.149 39.5835C303.924 39.5835 304.64 39.448 305.299 39.1769C305.977 38.9058 306.557 38.5185 307.042 38.0151C307.545 37.4922 307.932 36.8726 308.203 36.1561C308.494 35.4396 308.639 34.6457 308.639 33.7743C308.639 32.8836 308.494 32.0897 308.203 31.3926C307.932 30.6761 307.545 30.0661 307.042 29.5627C306.557 29.0398 305.977 28.6429 305.299 28.3718C304.64 28.1007 303.924 27.9651 303.149 27.9651C302.375 27.9651 301.649 28.1007 300.971 28.3718C300.313 28.6429 299.732 29.0398 299.228 29.5627C298.744 30.0661 298.357 30.6761 298.066 31.3926C297.795 32.0897 297.66 32.8836 297.66 33.7743C297.66 34.6457 297.795 35.4396 298.066 36.1561C298.357 36.8726 298.744 37.4922 299.228 38.0151C299.732 38.5185 300.313 38.9058 300.971 39.1769C301.649 39.448 302.375 39.5835 303.149 39.5835Z" fill="white"/>
<path d="M35.9823 16.8352L44.1983 21.4546L36.1876 26.0183L28.2497 21.349L35.9823 16.8352Z" fill="#77C0D4"/>
<path d="M44.1816 21.4545L44.1817 30.6874L36.1178 35.3568L36.1178 25.8874L44.1816 21.4545Z" fill="#11778D"/>
<path d="M28.2497 21.3502V30.5333L36.1098 35.3583L36.1098 25.8889L28.2497 21.3502Z" fill="#183342"/>
<path d="M48.0449 23.5032L56.2608 28.1226L48.2502 32.6863L40.3123 28.0169L48.0449 23.5032Z" fill="#77C0D4"/>
<path d="M56.2442 28.1234L56.2442 37.3564L48.1804 42.0257L48.1804 32.5563L56.2442 28.1234Z" fill="#11778D"/>
<path d="M40.3123 28.0171V37.2003L48.1724 42.0253L48.1724 32.5559L40.3123 28.0171Z" fill="#183342"/>
<path d="M36.2936 30.5315L44.5096 35.1509L36.4989 39.7146L28.561 35.0452L36.2936 30.5315Z" fill="#77C0D4"/>
<path d="M44.4929 35.1507L44.4929 44.3837L36.429 49.0531L36.429 39.5837L44.4929 35.1507Z" fill="#11778D"/>
<path d="M28.5609 35.0445V44.2276L36.4211 49.0527L36.4211 39.5832L28.5609 35.0445Z" fill="#183342"/>
<path d="M24.4646 37.3801L32.6805 41.9995L24.6699 46.5633L16.7319 41.8939L24.4646 37.3801Z" fill="#77C0D4"/>
<path d="M32.6638 42.0004L32.6638 51.2333L24.6 55.9027L24.6 46.4333L32.6638 42.0004Z" fill="#11778D"/>
<path d="M16.7319 41.8951V51.0782L24.5921 55.9033L24.5921 46.4338L16.7319 41.8951Z" fill="#183342"/>
<path d="M12.3241 43.9172L20.5401 48.5366L12.5294 53.1004L4.59149 48.431L12.3241 43.9172Z" fill="#77C0D4"/>
<path d="M20.5234 48.5375L20.5234 57.7704L12.4595 62.4398L12.4595 52.9704L20.5234 48.5375Z" fill="#11778D"/>
<path d="M4.5915 48.4312V57.6144L12.4516 62.4394L12.4516 52.97L4.5915 48.4312Z" fill="#183342"/>
<path d="M12.3241 30.5315L20.5401 35.1509L12.5294 39.7146L4.59149 35.0452L12.3241 30.5315Z" fill="#77C0D4"/>
<path d="M20.5234 35.1507L20.5235 44.3837L12.4596 49.0531L12.4596 39.5837L20.5234 35.1507Z" fill="#11778D"/>
<path d="M4.59157 35.0445V44.2276L12.4517 49.0527L12.4517 39.5832L4.59157 35.0445Z" fill="#183342"/>
<path d="M12.3242 16.8352L20.5401 21.4546L12.5295 26.0183L4.59155 21.349L12.3242 16.8352Z" fill="#77C0D4"/>
<path d="M20.5234 21.4545L20.5235 30.6874L12.4596 35.3568L12.4596 25.8874L20.5234 21.4545Z" fill="#11778D"/>
<path d="M4.59157 21.3502V30.5333L12.4517 35.3583L12.4517 25.8889L4.59157 21.3502Z" fill="#183342"/>
<path d="M12.3242 3.13793L20.5401 7.75733L12.5295 12.3211L4.59155 7.65168L12.3242 3.13793Z" fill="#77C0D4"/>
<path d="M20.5234 7.75719L20.5235 16.9901L12.4596 21.6595L12.4596 12.1901L20.5234 7.75719Z" fill="#11778D"/>
<path d="M4.59157 7.65093V16.8341L12.4517 21.6591L12.4517 12.1897L4.59157 7.65093Z" fill="#183342"/>
<path d="M24.4646 9.98656L32.6806 14.606L24.6699 19.1697L16.732 14.5003L24.4646 9.98656Z" fill="#77C0D4"/>
<path d="M32.6639 14.6058L32.6639 23.8388L24.6 28.5082L24.6 19.0387L32.6639 14.6058Z" fill="#11778D"/>
<path d="M16.732 14.4996V23.6827L24.5921 28.5078L24.5921 19.0383L16.732 14.4996Z" fill="#183342"/>
<path d="M35.9824 16.8352L44.1983 21.4546L36.1877 26.0183L28.2498 21.349L35.9824 16.8352Z" fill="#77C0D4"/>
<path d="M28.2498 21.3482V30.5313H34.7091L36.1099 25.887L28.2498 21.3482Z" fill="#183342"/>
</svg>
