<svg width="159" height="32" viewBox="0 0 159 32" fill="none" xmlns="http://www.w3.org/2000/svg">
<path d="M41.6862 22.174C40.8826 22.174 40.1371 22.0482 39.4497 21.7964C38.772 21.535 38.1814 21.1671 37.6779 20.6927C37.1841 20.2183 36.7969 19.6616 36.5161 19.0226C36.2353 18.3739 36.0949 17.6623 36.0949 16.8877C36.0949 16.1131 36.2353 15.4064 36.5161 14.7674C36.7969 14.1187 37.1841 13.5571 37.6779 13.0827C38.1814 12.6083 38.772 12.2452 39.4497 11.9935C40.1371 11.7321 40.8826 11.6014 41.6862 11.6014C42.6254 11.6014 43.4628 11.766 44.1987 12.0952C44.9442 12.4243 45.5638 12.8988 46.0576 13.5184L44.2277 15.174C43.8985 14.7867 43.5355 14.4914 43.1385 14.2881C42.7512 14.0848 42.3155 13.9831 41.8314 13.9831C41.4151 13.9831 41.0327 14.0509 40.6841 14.1864C40.3356 14.322 40.0354 14.5205 39.7837 14.7819C39.5417 15.0336 39.348 15.3386 39.2028 15.6968C39.0673 16.0551 38.9995 16.452 38.9995 16.8877C38.9995 17.3234 39.0673 17.7203 39.2028 18.0786C39.348 18.4368 39.5417 18.7466 39.7837 19.008C40.0354 19.2598 40.3356 19.4534 40.6841 19.589C41.0327 19.7245 41.4151 19.7923 41.8314 19.7923C42.3155 19.7923 42.7512 19.6906 43.1385 19.4873C43.5355 19.284 43.8985 18.9887 44.2277 18.6014L46.0576 20.257C45.5638 20.867 44.9442 21.3414 44.1987 21.6802C43.4628 22.0094 42.6254 22.174 41.6862 22.174ZM50.9039 22.1014C50.0422 22.1014 49.2774 21.9271 48.6093 21.5786C47.9413 21.23 47.4136 20.7508 47.0263 20.1408C46.6487 19.5212 46.4599 18.8144 46.4599 18.0205C46.4599 17.2266 46.6487 16.5246 47.0263 15.9147C47.4136 15.3047 47.9413 14.8303 48.6093 14.4914C49.2774 14.1429 50.0422 13.9686 50.9039 13.9686C51.7656 13.9686 52.5305 14.1429 53.1985 14.4914C53.8763 14.8303 54.4039 15.3047 54.7815 15.9147C55.1591 16.5246 55.3479 17.2266 55.3479 18.0205C55.3479 18.8144 55.1591 19.5212 54.7815 20.1408C54.4039 20.7508 53.8763 21.23 53.1985 21.5786C52.5305 21.9271 51.7656 22.1014 50.9039 22.1014ZM50.9039 19.9085C51.2234 19.9085 51.5042 19.8358 51.7462 19.6906C51.998 19.5454 52.1965 19.3324 52.3417 19.0516C52.4869 18.7612 52.5595 18.4174 52.5595 18.0205C52.5595 17.6235 52.4869 17.2895 52.3417 17.0184C52.1965 16.7376 51.998 16.5246 51.7462 16.3794C51.5042 16.2342 51.2234 16.1616 50.9039 16.1616C50.5941 16.1616 50.3133 16.2342 50.0616 16.3794C49.8195 16.5246 49.6211 16.7376 49.4662 17.0184C49.3209 17.2895 49.2483 17.6235 49.2483 18.0205C49.2483 18.4174 49.3209 18.7612 49.4662 19.0516C49.6211 19.3324 49.8195 19.5454 50.0616 19.6906C50.3133 19.8358 50.5941 19.9085 50.9039 19.9085ZM61.7527 13.9686C62.3627 13.9686 62.9146 14.0945 63.4083 14.3462C63.9021 14.5882 64.2894 14.9658 64.5702 15.479C64.8606 15.9921 65.0058 16.6553 65.0058 17.4686V21.9707H62.2465V17.9188C62.2465 17.3573 62.1303 16.9506 61.898 16.6989C61.6753 16.4375 61.3606 16.3068 60.954 16.3068C60.6635 16.3068 60.3973 16.3746 60.1552 16.5101C59.9132 16.636 59.7244 16.8345 59.5888 17.1055C59.4533 17.3766 59.3855 17.73 59.3855 18.1657V21.9707H56.6262V14.0993H59.2548V16.3358L58.7465 15.6823C59.0466 15.1111 59.4581 14.6851 59.9809 14.4043C60.5038 14.1138 61.0944 13.9686 61.7527 13.9686ZM70.2528 22.1014C69.2459 22.1014 68.4616 21.8545 67.9001 21.3607C67.3385 20.8573 67.0578 20.1021 67.0578 19.0952V12.342H69.8171V19.0661C69.8171 19.3469 69.8946 19.5696 70.0495 19.7342C70.2044 19.8891 70.4029 19.9665 70.6449 19.9665C70.9741 19.9665 71.2549 19.8843 71.4872 19.7197L72.1698 21.6512C71.9374 21.8061 71.6518 21.9175 71.313 21.9852C70.9741 22.0627 70.6207 22.1014 70.2528 22.1014ZM65.9105 16.452V14.3898H71.6179V16.452H65.9105ZM73.2338 21.9707V14.0993H75.9932V21.9707H73.2338ZM74.6135 13.2279C74.1101 13.2279 73.7034 13.0876 73.3936 12.8068C73.0838 12.526 72.9289 12.1775 72.9289 11.7611C72.9289 11.3448 73.0838 10.9963 73.3936 10.7155C73.7034 10.4347 74.1101 10.2943 74.6135 10.2943C75.117 10.2943 75.5236 10.4299 75.8334 10.701C76.1433 10.9624 76.2982 11.3012 76.2982 11.7176C76.2982 12.1532 76.1433 12.5163 75.8334 12.8068C75.5333 13.0876 75.1267 13.2279 74.6135 13.2279ZM82.913 13.9686C83.5229 13.9686 84.0748 14.0945 84.5686 14.3462C85.0624 14.5882 85.4496 14.9658 85.7304 15.479C86.0209 15.9921 86.1661 16.6553 86.1661 17.4686V21.9707H83.4068V17.9188C83.4068 17.3573 83.2906 16.9506 83.0582 16.6989C82.8355 16.4375 82.5209 16.3068 82.1142 16.3068C81.8238 16.3068 81.5575 16.3746 81.3155 16.5101C81.0734 16.636 80.8846 16.8345 80.7491 17.1055C80.6135 17.3766 80.5458 17.73 80.5458 18.1657V21.9707H77.7864V14.0993H80.4151V16.3358L79.9068 15.6823C80.2069 15.1111 80.6184 14.6851 81.1412 14.4043C81.664 14.1138 82.2546 13.9686 82.913 13.9686ZM91.2097 22.1014C90.5707 22.1014 89.9947 21.9755 89.4815 21.7238C88.9781 21.4721 88.5811 21.08 88.2906 20.5475C88.0099 20.0053 87.8695 19.3227 87.8695 18.4997V14.0993H90.6288V18.0495C90.6288 18.6595 90.7402 19.0952 90.9628 19.3566C91.1952 19.618 91.5196 19.7487 91.9359 19.7487C92.207 19.7487 92.4539 19.6858 92.6765 19.5599C92.8992 19.434 93.0783 19.2356 93.2139 18.9645C93.3494 18.6837 93.4172 18.3255 93.4172 17.8898V14.0993H96.1766V21.9707H93.5479V19.7487L94.0562 20.3732C93.7851 20.9541 93.393 21.3898 92.8799 21.6802C92.3667 21.961 91.81 22.1014 91.2097 22.1014ZM101.265 22.1014C100.626 22.1014 100.05 21.9755 99.5369 21.7238C99.0334 21.4721 98.6365 21.08 98.346 20.5475C98.0652 20.0053 97.9249 19.3227 97.9249 18.4997V14.0993H100.684V18.0495C100.684 18.6595 100.796 19.0952 101.018 19.3566C101.251 19.618 101.575 19.7487 101.991 19.7487C102.262 19.7487 102.509 19.6858 102.732 19.5599C102.955 19.434 103.134 19.2356 103.269 18.9645C103.405 18.6837 103.473 18.3255 103.473 17.8898V14.0993H106.232V21.9707H103.603V19.7487L104.112 20.3732C103.841 20.9541 103.448 21.3898 102.935 21.6802C102.422 21.961 101.865 22.1014 101.265 22.1014ZM118.262 13.9686C118.872 13.9686 119.415 14.0945 119.889 14.3462C120.373 14.5882 120.751 14.9658 121.022 15.479C121.303 15.9921 121.443 16.6553 121.443 17.4686V21.9707H118.684V17.9188C118.684 17.3573 118.577 16.9506 118.364 16.6989C118.151 16.4375 117.861 16.3068 117.493 16.3068C117.231 16.3068 116.994 16.3697 116.781 16.4956C116.568 16.6214 116.403 16.8151 116.287 17.0765C116.171 17.3282 116.113 17.6574 116.113 18.0641V21.9707H113.354V17.9188C113.354 17.3573 113.247 16.9506 113.034 16.6989C112.831 16.4375 112.54 16.3068 112.163 16.3068C111.892 16.3068 111.65 16.3697 111.437 16.4956C111.233 16.6214 111.069 16.8151 110.943 17.0765C110.827 17.3282 110.769 17.6574 110.769 18.0641V21.9707H108.009V14.0993H110.638V16.2923L110.115 15.6678C110.406 15.1062 110.803 14.6851 111.306 14.4043C111.809 14.1138 112.371 13.9686 112.991 13.9686C113.697 13.9686 114.317 14.1526 114.85 14.5205C115.392 14.8787 115.755 15.4403 115.939 16.2051L115.038 16.0163C115.319 15.3773 115.74 14.8787 116.302 14.5205C116.873 14.1526 117.527 13.9686 118.262 13.9686ZM123.315 21.9707V11.8047H128.122C129.245 11.8047 130.233 12.0129 131.085 12.4292C131.937 12.8455 132.6 13.4313 133.075 14.1864C133.559 14.9416 133.801 15.8421 133.801 16.8877C133.801 17.9237 133.559 18.8241 133.075 19.589C132.6 20.3441 131.937 20.9299 131.085 21.3462C130.233 21.7625 129.245 21.9707 128.122 21.9707H123.315ZM126.191 19.6761H128.006C128.587 19.6761 129.091 19.5696 129.517 19.3566C129.952 19.1339 130.291 18.8144 130.533 18.3981C130.775 17.9721 130.896 17.4686 130.896 16.8877C130.896 16.2971 130.775 15.7936 130.533 15.3773C130.291 14.961 129.952 14.6463 129.517 14.4333C129.091 14.2107 128.587 14.0993 128.006 14.0993H126.191V19.6761ZM133.952 21.9707L138.439 11.8047H141.271L145.773 21.9707H142.782L139.267 13.2134H140.4L136.886 21.9707H133.952ZM136.406 19.9956L137.147 17.8753H142.114L142.854 19.9956H136.406ZM151.573 22.174C150.76 22.174 150.01 22.0433 149.322 21.7819C148.635 21.5205 148.035 21.1526 147.522 20.6782C147.018 20.1941 146.626 19.6325 146.345 18.9935C146.064 18.3545 145.924 17.6526 145.924 16.8877C145.924 16.1228 146.064 15.4209 146.345 14.7819C146.626 14.1429 147.018 13.5862 147.522 13.1118C148.035 12.6277 148.635 12.2549 149.322 11.9935C150.01 11.7321 150.76 11.6014 151.573 11.6014C152.396 11.6014 153.147 11.7321 153.824 11.9935C154.512 12.2549 155.107 12.6277 155.611 13.1118C156.114 13.5862 156.506 14.1429 156.787 14.7819C157.078 15.4209 157.223 16.1228 157.223 16.8877C157.223 17.6526 157.078 18.3594 156.787 19.008C156.506 19.647 156.114 20.2038 155.611 20.6782C155.107 21.1526 154.512 21.5205 153.824 21.7819C153.147 22.0433 152.396 22.174 151.573 22.174ZM151.573 19.7923C151.961 19.7923 152.319 19.7245 152.648 19.589C152.987 19.4534 153.277 19.2598 153.52 19.008C153.771 18.7466 153.965 18.4368 154.1 18.0786C154.246 17.7203 154.318 17.3234 154.318 16.8877C154.318 16.4423 154.246 16.0454 154.1 15.6968C153.965 15.3386 153.771 15.0336 153.52 14.7819C153.277 14.5205 152.987 14.322 152.648 14.1864C152.319 14.0509 151.961 13.9831 151.573 13.9831C151.186 13.9831 150.823 14.0509 150.484 14.1864C150.155 14.322 149.865 14.5205 149.613 14.7819C149.371 15.0336 149.177 15.3386 149.032 15.6968C148.896 16.0454 148.829 16.4423 148.829 16.8877C148.829 17.3234 148.896 17.7203 149.032 18.0786C149.177 18.4368 149.371 18.7466 149.613 19.008C149.865 19.2598 150.155 19.4534 150.484 19.589C150.823 19.7245 151.186 19.7923 151.573 19.7923Z" fill="white"/>
<path d="M17.991 8.41856L22.099 10.7282L18.0937 13.0101L14.1248 10.6754L17.991 8.41856Z" fill="#77C0D4"/>
<path d="M22.0906 10.7282L22.0906 15.3446L18.0587 17.6793L18.0587 12.9446L22.0906 10.7282Z" fill="#11778D"/>
<path d="M14.1247 10.676V15.2676L18.0548 17.6801L18.0548 12.9454L14.1247 10.676Z" fill="#183342"/>
<path d="M24.0223 11.7525L28.1302 14.0622L24.125 16.3441L20.156 14.0094L24.0223 11.7525Z" fill="#77C0D4"/>
<path d="M28.1219 14.0622L28.1219 18.6786L24.09 21.0133L24.09 16.2786L28.1219 14.0622Z" fill="#11778D"/>
<path d="M20.156 14.0091V18.6006L24.086 21.0131L24.086 16.2784L20.156 14.0091Z" fill="#183342"/>
<path d="M18.1467 15.2662L22.2546 17.5759L18.2493 19.8578L14.2804 17.5231L18.1467 15.2662Z" fill="#77C0D4"/>
<path d="M22.2463 17.5759L22.2463 22.1923L18.2144 24.527L18.2144 19.7923L22.2463 17.5759Z" fill="#11778D"/>
<path d="M14.2804 17.5227V22.1143L18.2104 24.5268L18.2104 19.7921L14.2804 17.5227Z" fill="#183342"/>
<path d="M12.2322 18.691L16.3401 21.0007L12.3349 23.2826L8.36591 20.9479L12.2322 18.691Z" fill="#77C0D4"/>
<path d="M16.3318 21.0016L16.3318 25.6181L12.2999 27.9528L12.2999 23.2181L16.3318 21.0016Z" fill="#11778D"/>
<path d="M8.36595 20.9485V25.54L12.296 27.9525L12.296 23.2179L8.36595 20.9485Z" fill="#183342"/>
<path d="M6.16207 21.9596L10.27 24.2693L6.26472 26.5511L2.29578 24.2164L6.16207 21.9596Z" fill="#77C0D4"/>
<path d="M10.2616 24.2692L10.2616 28.8856L6.22973 31.2203L6.22973 26.4857L10.2616 24.2692Z" fill="#11778D"/>
<path d="M2.29576 24.2161V28.8076L6.22579 31.2201L6.22579 26.4854L2.29576 24.2161Z" fill="#183342"/>
<path d="M6.16201 15.2662L10.2699 17.5759L6.26466 19.8578L2.29572 17.5231L6.16201 15.2662Z" fill="#77C0D4"/>
<path d="M10.2616 17.5759L10.2616 22.1923L6.22973 24.527L6.22973 19.7923L10.2616 17.5759Z" fill="#11778D"/>
<path d="M2.29576 17.5227V22.1143L6.22579 24.5268L6.22579 19.7921L2.29576 17.5227Z" fill="#183342"/>
<path d="M6.16207 8.41856L10.27 10.7282L6.26472 13.0101L2.29578 10.6754L6.16207 8.41856Z" fill="#77C0D4"/>
<path d="M10.2616 10.7282L10.2616 15.3446L6.22973 17.6793L6.22973 12.9446L10.2616 10.7282Z" fill="#11778D"/>
<path d="M2.29576 10.676V15.2676L6.22579 17.6801L6.22579 12.9454L2.29576 10.676Z" fill="#183342"/>
<path d="M6.16207 1.56993L10.27 3.87961L6.26472 6.16147L2.29578 3.82679L6.16207 1.56993Z" fill="#77C0D4"/>
<path d="M10.2616 3.87956L10.2616 8.496L6.22973 10.8307L6.22973 6.096L10.2616 3.87956Z" fill="#11778D"/>
<path d="M2.29576 3.82644V8.41797L6.22579 10.8305L6.22579 6.0958L2.29576 3.82644Z" fill="#183342"/>
<path d="M12.2323 4.99376L16.3402 7.30344L12.3349 9.58529L8.36597 7.25062L12.2323 4.99376Z" fill="#77C0D4"/>
<path d="M16.3319 7.30339L16.3319 11.9198L12.3 14.2545L12.3 9.51983L16.3319 7.30339Z" fill="#11778D"/>
<path d="M8.36595 7.25026V11.8418L12.296 14.2543L12.296 9.51962L8.36595 7.25026Z" fill="#183342"/>
<path d="M17.9911 8.41759L22.099 10.7273L18.0938 13.0091L14.1248 10.6744L17.9911 8.41759Z" fill="#77C0D4"/>
<path d="M14.1248 10.6741V15.2656H17.3544L18.0548 12.9435L14.1248 10.6741Z" fill="#183342"/>
</svg>
