<svg width="1262" height="256" viewBox="0 0 1262 256" fill="none" xmlns="http://www.w3.org/2000/svg">
<path d="M333.492 176.389C327.063 176.389 321.099 175.382 315.6 173.368C310.178 171.277 305.453 168.334 301.426 164.539C297.475 160.743 294.377 156.289 292.131 151.177C289.885 145.988 288.762 140.295 288.762 134.098C288.762 127.902 289.885 122.248 292.131 117.135C294.377 111.946 297.475 107.454 301.426 103.658C305.453 99.8628 310.178 96.9582 315.6 94.9444C321.099 92.8531 327.063 91.8074 333.492 91.8074C341.006 91.8074 347.705 93.1242 353.592 95.7577C359.556 98.3912 364.513 102.187 368.464 107.144L353.824 120.389C351.191 117.29 348.286 114.928 345.111 113.301C342.012 111.675 338.527 110.862 334.654 110.862C331.324 110.862 328.264 111.404 325.476 112.488C322.687 113.573 320.286 115.16 318.272 117.252C316.336 119.266 314.787 121.705 313.625 124.571C312.54 127.437 311.998 130.613 311.998 134.098C311.998 137.584 312.54 140.76 313.625 143.625C314.787 146.491 316.336 148.97 318.272 151.061C320.286 153.075 322.687 154.624 325.476 155.709C328.264 156.793 331.324 157.335 334.654 157.335C338.527 157.335 342.012 156.522 345.111 154.895C348.286 153.269 351.191 150.906 353.824 147.808L368.464 161.053C364.513 165.933 359.556 169.728 353.592 172.439C347.705 175.073 341.006 176.389 333.492 176.389ZM407.235 175.808C400.341 175.808 394.222 174.414 388.878 171.626C383.533 168.837 379.312 165.003 376.213 160.124C373.193 155.166 371.682 149.512 371.682 143.161C371.682 136.809 373.193 131.194 376.213 126.314C379.312 121.434 383.533 117.639 388.878 114.928C394.222 112.14 400.341 110.745 407.235 110.745C414.128 110.745 420.247 112.14 425.592 114.928C431.014 117.639 435.235 121.434 438.256 126.314C441.276 131.194 442.787 136.809 442.787 143.161C442.787 149.512 441.276 155.166 438.256 160.124C435.235 165.003 431.014 168.837 425.592 171.626C420.247 174.414 414.128 175.808 407.235 175.808ZM407.235 158.265C409.791 158.265 412.037 157.684 413.973 156.522C415.987 155.36 417.575 153.656 418.737 151.41C419.899 149.086 420.48 146.336 420.48 143.161C420.48 139.985 419.899 137.313 418.737 135.144C417.575 132.898 415.987 131.194 413.973 130.032C412.037 128.87 409.791 128.289 407.235 128.289C404.756 128.289 402.51 128.87 400.496 130.032C398.56 131.194 396.972 132.898 395.732 135.144C394.571 137.313 393.99 139.985 393.99 143.161C393.99 146.336 394.571 149.086 395.732 151.41C396.972 153.656 398.56 155.36 400.496 156.522C402.51 157.684 404.756 158.265 407.235 158.265ZM494.026 110.745C498.905 110.745 503.32 111.752 507.271 113.766C511.221 115.703 514.319 118.723 516.565 122.829C518.889 126.934 520.051 132.239 520.051 138.746V174.763H497.976V142.347C497.976 137.855 497.047 134.602 495.188 132.588C493.406 130.497 490.889 129.451 487.636 129.451C485.312 129.451 483.182 129.993 481.246 131.078C479.309 132.084 477.799 133.672 476.714 135.841C475.63 138.01 475.088 140.837 475.088 144.323V174.763H453.013V111.791H474.042V129.683L469.976 124.455C472.377 119.885 475.669 116.477 479.851 114.231C484.034 111.907 488.759 110.745 494.026 110.745ZM562.027 175.808C553.971 175.808 547.698 173.833 543.205 169.883C538.713 165.855 536.466 159.814 536.466 151.758V97.7328H558.541V151.526C558.541 153.772 559.161 155.554 560.4 156.87C561.64 158.11 563.227 158.729 565.164 158.729C567.797 158.729 570.044 158.071 571.903 156.754L577.363 172.207C575.504 173.446 573.219 174.337 570.508 174.879C567.797 175.499 564.97 175.808 562.027 175.808ZM527.288 130.613V114.115H572.948V130.613H527.288ZM585.875 174.763V111.791H607.95V174.763H585.875ZM596.913 104.82C592.885 104.82 589.632 103.697 587.153 101.451C584.675 99.2045 583.436 96.416 583.436 93.0854C583.436 89.7548 584.675 86.9664 587.153 84.7202C589.632 82.474 592.885 81.3509 596.913 81.3509C600.941 81.3509 604.194 82.4353 606.672 84.604C609.151 86.6953 610.39 89.4063 610.39 92.7369C610.39 96.2224 609.151 99.127 606.672 101.451C604.271 103.697 601.018 104.82 596.913 104.82ZM663.309 110.745C668.189 110.745 672.604 111.752 676.554 113.766C680.504 115.703 683.603 118.723 685.849 122.829C688.173 126.934 689.334 132.239 689.334 138.746V174.763H667.26V142.347C667.26 137.855 666.33 134.602 664.471 132.588C662.69 130.497 660.172 129.451 656.919 129.451C654.595 129.451 652.465 129.993 650.529 131.078C648.593 132.084 647.082 133.672 645.998 135.841C644.913 138.01 644.371 140.837 644.371 144.323V174.763H622.296V111.791H643.326V129.683L639.259 124.455C641.66 119.885 644.952 116.477 649.135 114.231C653.317 111.907 658.042 110.745 663.309 110.745ZM729.684 175.808C724.572 175.808 719.963 174.801 715.858 172.788C711.83 170.774 708.655 167.637 706.331 163.377C704.085 159.039 702.962 153.579 702.962 146.995V111.791H725.036V143.393C725.036 148.273 725.927 151.758 727.709 153.85C729.568 155.941 732.162 156.987 735.493 156.987C737.662 156.987 739.637 156.483 741.418 155.476C743.2 154.469 744.633 152.881 745.717 150.713C746.802 148.466 747.344 145.601 747.344 142.115V111.791H769.419V174.763H748.389V156.987L752.456 161.982C750.287 166.63 747.15 170.115 743.045 172.439C738.94 174.685 734.486 175.808 729.684 175.808ZM810.128 175.808C805.015 175.808 800.407 174.801 796.302 172.788C792.274 170.774 789.098 167.637 786.775 163.377C784.528 159.039 783.405 153.579 783.405 146.995V111.791H805.48V143.393C805.48 148.273 806.371 151.758 808.152 153.85C810.011 155.941 812.606 156.987 815.937 156.987C818.105 156.987 820.081 156.483 821.862 155.476C823.644 154.469 825.077 152.881 826.161 150.713C827.245 148.466 827.787 145.601 827.787 142.115V111.791H849.862V174.763H828.833V156.987L832.9 161.982C830.731 166.63 827.594 170.115 823.489 172.439C819.384 174.685 814.93 175.808 810.128 175.808ZM946.107 110.745C950.987 110.745 955.324 111.752 959.12 113.766C962.992 115.703 966.013 118.723 968.182 122.829C970.428 126.934 971.551 132.239 971.551 138.746V174.763H949.476V142.347C949.476 137.855 948.624 134.602 946.92 132.588C945.216 130.497 942.893 129.451 939.949 129.451C937.858 129.451 935.96 129.954 934.256 130.961C932.552 131.968 931.236 133.517 930.306 135.609C929.377 137.623 928.912 140.256 928.912 143.509V174.763H906.837V142.347C906.837 137.855 905.985 134.602 904.281 132.588C902.654 130.497 900.331 129.451 897.31 129.451C895.141 129.451 893.205 129.954 891.501 130.961C889.874 131.968 888.557 133.517 887.55 135.609C886.621 137.623 886.156 140.256 886.156 143.509V174.763H864.081V111.791H885.111V129.335L880.928 124.339C883.252 119.846 886.427 116.477 890.455 114.231C894.483 111.907 898.975 110.745 903.932 110.745C909.587 110.745 914.544 112.217 918.804 115.16C923.141 118.026 926.046 122.519 927.518 128.638L920.314 127.127C922.561 122.015 925.93 118.026 930.422 115.16C934.992 112.217 940.22 110.745 946.107 110.745ZM986.53 174.763V93.434H1024.99C1033.97 93.434 1041.87 95.0993 1048.69 98.4299C1055.5 101.761 1060.81 106.447 1064.61 112.488C1068.48 118.53 1070.41 125.733 1070.41 134.098C1070.41 142.386 1068.48 149.59 1064.61 155.709C1060.81 161.75 1055.5 166.436 1048.69 169.767C1041.87 173.097 1033.97 174.763 1024.99 174.763H986.53ZM1009.53 156.406H1024.06C1028.7 156.406 1032.73 155.554 1036.14 153.85C1039.63 152.068 1042.34 149.512 1044.27 146.181C1046.21 142.773 1047.18 138.746 1047.18 134.098C1047.18 129.374 1046.21 125.346 1044.27 122.015C1042.34 118.685 1039.63 116.167 1036.14 114.463C1032.73 112.682 1028.7 111.791 1024.06 111.791H1009.53V156.406ZM1071.62 174.763L1107.52 93.434H1130.18L1166.2 174.763H1142.26L1114.15 104.704H1123.21L1095.09 174.763H1071.62ZM1091.26 158.962L1097.18 141.999H1136.92L1142.84 158.962H1091.26ZM1212.6 176.389C1206.09 176.389 1200.09 175.344 1194.59 173.252C1189.09 171.161 1184.29 168.218 1180.18 164.422C1176.15 160.55 1173.02 156.057 1170.77 150.945C1168.53 145.833 1167.4 140.217 1167.4 134.098C1167.4 127.979 1168.53 122.364 1170.77 117.252C1173.02 112.14 1176.15 107.686 1180.18 103.891C1184.29 100.018 1189.09 97.0357 1194.59 94.9444C1200.09 92.8531 1206.09 91.8074 1212.6 91.8074C1219.18 91.8074 1225.18 92.8531 1230.61 94.9444C1236.11 97.0357 1240.87 100.018 1244.9 103.891C1248.92 107.686 1252.06 112.14 1254.31 117.252C1256.63 122.364 1257.79 127.979 1257.79 134.098C1257.79 140.217 1256.63 145.872 1254.31 151.061C1252.06 156.173 1248.92 160.627 1244.9 164.422C1240.87 168.218 1236.11 171.161 1230.61 173.252C1225.18 175.344 1219.18 176.389 1212.6 176.389ZM1212.6 157.335C1215.7 157.335 1218.56 156.793 1221.2 155.709C1223.91 154.624 1226.23 153.075 1228.17 151.061C1230.18 148.97 1231.73 146.491 1232.81 143.625C1233.98 140.76 1234.56 137.584 1234.56 134.098C1234.56 130.535 1233.98 127.36 1232.81 124.571C1231.73 121.705 1230.18 119.266 1228.17 117.252C1226.23 115.16 1223.91 113.573 1221.2 112.488C1218.56 111.404 1215.7 110.862 1212.6 110.862C1209.5 110.862 1206.59 111.404 1203.88 112.488C1201.25 113.573 1198.93 115.16 1196.91 117.252C1194.98 119.266 1193.43 121.705 1192.27 124.571C1191.18 127.36 1190.64 130.535 1190.64 134.098C1190.64 137.584 1191.18 140.76 1192.27 143.625C1193.43 146.491 1194.98 148.97 1196.91 151.061C1198.93 153.075 1201.25 154.624 1203.88 155.709C1206.59 156.793 1209.5 157.335 1212.6 157.335Z" fill="white"/>
<path d="M143.929 67.3418L176.793 85.8194L144.751 104.074L112.999 85.3968L143.929 67.3418Z" fill="#77C0D4"/>
<path d="M176.726 85.8188L176.727 122.751L144.471 141.428L144.471 103.55L176.726 85.8188Z" fill="#11778D"/>
<path d="M112.999 85.3996V122.132L144.439 141.432L144.439 103.555L112.999 85.3996Z" fill="#183342"/>
<path d="M192.18 94.0136L225.043 112.491L193.001 130.746L161.249 112.069L192.18 94.0136Z" fill="#77C0D4"/>
<path d="M224.977 112.493L224.977 149.424L192.721 168.102L192.721 130.224L224.977 112.493Z" fill="#11778D"/>
<path d="M161.249 112.07V148.802L192.69 168.102L192.69 130.225L161.249 112.07Z" fill="#183342"/>
<path d="M145.174 122.127L178.038 140.605L145.996 158.86L114.244 140.182L145.174 122.127Z" fill="#77C0D4"/>
<path d="M177.972 140.604L177.972 177.536L145.716 196.213L145.716 158.336L177.972 140.604Z" fill="#11778D"/>
<path d="M114.244 140.179V176.912L145.684 196.212L145.684 158.334L114.244 140.179Z" fill="#183342"/>
<path d="M97.8583 149.521L130.722 167.999L98.6795 186.254L66.9277 167.576L97.8583 149.521Z" fill="#77C0D4"/>
<path d="M130.655 168L130.655 204.932L98.4 223.61L98.4 185.732L130.655 168Z" fill="#11778D"/>
<path d="M66.9279 167.579V204.312L98.3684 223.612L98.3684 185.734L66.9279 167.579Z" fill="#183342"/>
<path d="M49.2968 175.668L82.1605 194.146L50.118 212.401L18.3662 193.723L49.2968 175.668Z" fill="#77C0D4"/>
<path d="M82.0939 194.149L82.0939 231.081L49.8385 249.758L49.8385 211.881L82.0939 194.149Z" fill="#11778D"/>
<path d="M18.3663 193.724V230.456L49.8068 249.757L49.8068 211.879L18.3663 193.724Z" fill="#183342"/>
<path d="M49.2967 122.127L82.1605 140.605L50.118 158.86L18.3662 140.182L49.2967 122.127Z" fill="#77C0D4"/>
<path d="M82.0938 140.604L82.0939 177.536L49.8384 196.213L49.8384 158.336L82.0938 140.604Z" fill="#11778D"/>
<path d="M18.3663 140.179V176.912L49.8068 196.212L49.8068 158.334L18.3663 140.179Z" fill="#183342"/>
<path d="M49.2968 67.3418L82.1605 85.8194L50.118 104.074L18.3662 85.3968L49.2968 67.3418Z" fill="#77C0D4"/>
<path d="M82.0939 85.8188L82.0939 122.751L49.8385 141.428L49.8385 103.55L82.0939 85.8188Z" fill="#11778D"/>
<path d="M18.3663 85.3996V122.132L49.8068 141.432L49.8068 103.555L18.3663 85.3996Z" fill="#183342"/>
<path d="M49.2968 12.5517L82.1605 31.0293L50.118 49.2843L18.3662 30.6067L49.2968 12.5517Z" fill="#77C0D4"/>
<path d="M82.0939 31.0288L82.0939 67.9606L49.8385 86.6382L49.8385 48.7604L82.0939 31.0288Z" fill="#11778D"/>
<path d="M18.3663 30.6057V67.3383L49.8068 86.6384L49.8068 48.7607L18.3663 30.6057Z" fill="#183342"/>
<path d="M97.8584 39.9472L130.722 58.4248L98.6797 76.6798L66.9279 58.0022L97.8584 39.9472Z" fill="#77C0D4"/>
<path d="M130.656 58.4243L130.656 95.3561L98.4001 114.034L98.4001 76.1559L130.656 58.4243Z" fill="#11778D"/>
<path d="M66.9279 57.9992V94.7318L98.3684 114.032L98.3684 76.1543L66.9279 57.9992Z" fill="#183342"/>
<path d="M143.93 67.3418L176.793 85.8194L144.751 104.074L112.999 85.3968L143.93 67.3418Z" fill="#77C0D4"/>
<path d="M112.999 85.3938V122.126H138.836L144.44 103.549L112.999 85.3938Z" fill="#183342"/>
</svg>
