<svg width="191" height="128" viewBox="0 0 191 128" fill="none" xmlns="http://www.w3.org/2000/svg">
<path d="M102.164 20.5069L112.172 26.1337L102.414 31.6928L92.7453 26.005L102.164 20.5069Z" fill="#77C0D4"/>
<path d="M112.152 26.1331L112.152 37.3797L102.329 43.0675L102.329 31.5329L112.152 26.1331Z" fill="#11778D"/>
<path d="M92.7453 26.0053V37.1912L102.32 43.0686L102.32 31.5339L92.7453 26.0053Z" fill="#183342"/>
<path d="M116.858 28.6299L126.865 34.2568L117.108 39.8158L107.439 34.1281L116.858 28.6299Z" fill="#77C0D4"/>
<path d="M126.845 34.2572L126.845 45.5038L117.023 51.1915L117.023 39.6569L126.845 34.2572Z" fill="#11778D"/>
<path d="M107.439 34.1274V45.3133L117.013 51.1907L117.013 39.656L107.439 34.1274Z" fill="#183342"/>
<path d="M102.544 37.1905L112.551 42.8173L102.794 48.3764L93.1245 42.6886L102.544 37.1905Z" fill="#77C0D4"/>
<path d="M112.531 42.8167L112.531 54.0633L102.709 59.7511L102.709 48.2164L112.531 42.8167Z" fill="#11778D"/>
<path d="M93.1245 42.6879V53.8739L102.699 59.7512L102.699 48.2166L93.1245 42.6879Z" fill="#183342"/>
<path d="M88.1347 45.5323L98.1424 51.1591L88.3848 56.7182L78.7156 51.0304L88.1347 45.5323Z" fill="#77C0D4"/>
<path d="M98.1221 51.1595L98.1221 62.4061L88.2996 68.0939L88.2996 56.5592L98.1221 51.1595Z" fill="#11778D"/>
<path d="M78.7156 51.0317V62.2176L88.29 68.095L88.29 56.5603L78.7156 51.0317Z" fill="#183342"/>
<path d="M73.3465 53.4951L83.3543 59.122L73.5966 64.6811L63.9274 58.9933L73.3465 53.4951Z" fill="#77C0D4"/>
<path d="M83.334 59.1224L83.3341 70.369L73.5115 76.0568L73.5115 64.5221L83.334 59.1224Z" fill="#11778D"/>
<path d="M63.9275 58.9936V70.1795L73.5019 76.0569L73.5019 64.5222L63.9275 58.9936Z" fill="#183342"/>
<path d="M73.3465 37.1905L83.3543 42.8173L73.5966 48.3764L63.9274 42.6886L73.3465 37.1905Z" fill="#77C0D4"/>
<path d="M83.334 42.8167L83.3341 54.0633L73.5115 59.7511L73.5115 48.2164L83.334 42.8167Z" fill="#11778D"/>
<path d="M63.9275 42.6879V53.8739L73.5019 59.7512L73.5019 48.2166L63.9275 42.6879Z" fill="#183342"/>
<path d="M73.3465 20.5069L83.3543 26.1337L73.5966 31.6928L63.9274 26.005L73.3465 20.5069Z" fill="#77C0D4"/>
<path d="M83.334 26.1331L83.3341 37.3797L73.5115 43.0675L73.5115 31.5329L83.334 26.1331Z" fill="#11778D"/>
<path d="M63.9275 26.0053V37.1912L73.5019 43.0686L73.5019 31.5339L63.9275 26.0053Z" fill="#183342"/>
<path d="M73.3465 3.82229L83.3543 9.44915L73.5966 15.0082L63.9274 9.32047L73.3465 3.82229Z" fill="#77C0D4"/>
<path d="M83.334 9.44858L83.334 20.6952L73.5114 26.3829L73.5114 14.8483L83.334 9.44858Z" fill="#11778D"/>
<path d="M63.9275 9.32074V20.5067L73.5019 26.384L73.5019 14.8494L63.9275 9.32074Z" fill="#183342"/>
<path d="M88.1347 12.1651L98.1424 17.7919L88.3848 23.351L78.7156 17.6632L88.1347 12.1651Z" fill="#77C0D4"/>
<path d="M98.1221 17.7913L98.1221 29.0379L88.2996 34.7257L88.2996 23.1911L98.1221 17.7913Z" fill="#11778D"/>
<path d="M78.7156 17.6625V28.8485L88.29 34.7258L88.29 23.1912L78.7156 17.6625Z" fill="#183342"/>
<path d="M102.164 20.5078L112.172 26.1347L102.415 31.6938L92.7454 26.006L102.164 20.5078Z" fill="#77C0D4"/>
<path d="M92.7454 26.0053L92.7454 37.1912L100.613 37.1912L102.32 31.5339L92.7454 26.0053Z" fill="#183342"/>
<g filter="url(#filter0_d_7237_12277)">
<path d="M13.8233 120.076C12.0638 120.076 10.4315 119.8 8.92643 119.249C7.44253 118.677 6.14942 117.871 5.04709 116.833C3.96597 115.794 3.11802 114.575 2.50326 113.176C1.88851 111.756 1.58113 110.197 1.58113 108.502C1.58113 106.806 1.88851 105.258 2.50326 103.859C3.11802 102.439 3.96597 101.209 5.04709 100.171C6.14942 99.1318 7.44253 98.3369 8.92643 97.7857C10.4315 97.2134 12.0638 96.9272 13.8233 96.9272C15.8796 96.9272 17.7132 97.2876 19.3243 98.0083C20.9566 98.7291 22.3133 99.7678 23.3944 101.125L19.3879 104.749C18.6672 103.902 17.8722 103.255 17.0031 102.81C16.1551 102.365 15.2012 102.142 14.1413 102.142C13.2297 102.142 12.3924 102.29 11.6292 102.587C10.8661 102.884 10.2089 103.319 9.65778 103.891C9.12782 104.442 8.70384 105.11 8.38587 105.894C8.08909 106.679 7.9407 107.548 7.9407 108.502C7.9407 109.456 8.08909 110.325 8.38587 111.109C8.70384 111.893 9.12782 112.572 9.65778 113.144C10.2089 113.695 10.8661 114.119 11.6292 114.416C12.3924 114.713 13.2297 114.861 14.1413 114.861C15.2012 114.861 16.1551 114.639 17.0031 114.193C17.8722 113.748 18.6672 113.102 19.3879 112.254L23.3944 115.879C22.3133 117.214 20.9566 118.253 19.3243 118.995C17.7132 119.716 15.8796 120.076 13.8233 120.076ZM34.0055 119.917C32.1188 119.917 30.4441 119.535 28.9814 118.772C27.5187 118.009 26.3634 116.96 25.5155 115.624C24.6887 114.268 24.2753 112.72 24.2753 110.982C24.2753 109.244 24.6887 107.707 25.5155 106.371C26.3634 105.036 27.5187 103.997 28.9814 103.255C30.4441 102.492 32.1188 102.11 34.0055 102.11C35.8922 102.11 37.5668 102.492 39.0295 103.255C40.5134 103.997 41.6688 105.036 42.4955 106.371C43.3223 107.707 43.7356 109.244 43.7356 110.982C43.7356 112.72 43.3223 114.268 42.4955 115.624C41.6688 116.96 40.5134 118.009 39.0295 118.772C37.5668 119.535 35.8922 119.917 34.0055 119.917ZM34.0055 115.116C34.705 115.116 35.3198 114.957 35.8498 114.639C36.4009 114.321 36.8355 113.854 37.1535 113.239C37.4715 112.604 37.6304 111.851 37.6304 110.982C37.6304 110.113 37.4715 109.381 37.1535 108.788C36.8355 108.173 36.4009 107.707 35.8498 107.389C35.3198 107.071 34.705 106.912 34.0055 106.912C33.3271 106.912 32.7124 107.071 32.1612 107.389C31.6312 107.707 31.1967 108.173 30.8575 108.788C30.5395 109.381 30.3805 110.113 30.3805 110.982C30.3805 111.851 30.5395 112.604 30.8575 113.239C31.1967 113.854 31.6312 114.321 32.1612 114.639C32.7124 114.957 33.3271 115.116 34.0055 115.116ZM57.759 102.11C59.0945 102.11 60.3028 102.386 61.3839 102.937C62.4651 103.467 63.313 104.294 63.9278 105.417C64.5637 106.541 64.8817 107.993 64.8817 109.774V119.631H58.8401V110.759C58.8401 109.53 58.5857 108.639 58.077 108.088C57.5894 107.516 56.9004 107.23 56.0101 107.23C55.3741 107.23 54.7912 107.378 54.2612 107.675C53.7312 107.95 53.3179 108.385 53.0211 108.979C52.7243 109.572 52.5759 110.346 52.5759 111.3V119.631H46.5343V102.396H52.2897V107.293L51.1768 105.862C51.834 104.612 52.7349 103.679 53.8796 103.064C55.0244 102.428 56.3175 102.11 57.759 102.11ZM76.3699 119.917C74.1652 119.917 72.4482 119.376 71.2186 118.295C69.9891 117.193 69.3744 115.54 69.3744 113.335V98.5489H75.416V113.271C75.416 113.886 75.5856 114.374 75.9247 114.734C76.2639 115.073 76.6985 115.243 77.2284 115.243C77.9492 115.243 78.564 115.063 79.0727 114.702L80.5672 118.931C80.0585 119.27 79.4331 119.514 78.6911 119.663C77.9492 119.832 77.1754 119.917 76.3699 119.917ZM66.8623 107.548V103.032H79.3589V107.548H66.8623ZM82.8969 119.631V102.396H88.9385V119.631H82.8969ZM85.9177 100.489C84.8154 100.489 83.925 100.181 83.2467 99.5664C82.5683 98.9517 82.2292 98.1885 82.2292 97.277C82.2292 96.3654 82.5683 95.6023 83.2467 94.9875C83.925 94.3728 84.8154 94.0654 85.9177 94.0654C87.02 94.0654 87.9104 94.3622 88.5887 94.9557C89.2671 95.5281 89.6063 96.27 89.6063 97.1816C89.6063 98.1355 89.2671 98.9305 88.5887 99.5664C87.9316 100.181 87.0412 100.489 85.9177 100.489ZM104.089 102.11C105.425 102.11 106.633 102.386 107.714 102.937C108.796 103.467 109.643 104.294 110.258 105.417C110.894 106.541 111.212 107.993 111.212 109.774V119.631H105.171V110.759C105.171 109.53 104.916 108.639 104.407 108.088C103.92 107.516 103.231 107.23 102.341 107.23C101.705 107.23 101.122 107.378 100.592 107.675C100.062 107.95 99.6483 108.385 99.3515 108.979C99.0548 109.572 98.9064 110.346 98.9064 111.3V119.631H92.8648V102.396H98.6202V107.293L97.5073 105.862C98.1644 104.612 99.0654 103.679 100.21 103.064C101.355 102.428 102.648 102.11 104.089 102.11ZM122.255 119.917C120.856 119.917 119.595 119.641 118.471 119.09C117.369 118.539 116.5 117.681 115.864 116.515C115.249 115.328 114.942 113.833 114.942 112.031V102.396H120.983V111.045C120.983 112.381 121.227 113.335 121.715 113.907C122.223 114.48 122.934 114.766 123.845 114.766C124.439 114.766 124.979 114.628 125.467 114.352C125.954 114.077 126.347 113.642 126.643 113.049C126.94 112.434 127.088 111.65 127.088 110.696V102.396H133.13V119.631H127.375V114.766L128.488 116.133C127.894 117.405 127.035 118.359 125.912 118.995C124.788 119.61 123.57 119.917 122.255 119.917ZM144.271 119.917C142.872 119.917 141.611 119.641 140.488 119.09C139.385 118.539 138.516 117.681 137.88 116.515C137.265 115.328 136.958 113.833 136.958 112.031V102.396H143V111.045C143 112.381 143.243 113.335 143.731 113.907C144.24 114.48 144.95 114.766 145.861 114.766C146.455 114.766 146.995 114.628 147.483 114.352C147.971 114.077 148.363 113.642 148.66 113.049C148.956 112.434 149.105 111.65 149.105 110.696V102.396H155.146V119.631H149.391V114.766L150.504 116.133C149.91 117.405 149.052 118.359 147.928 118.995C146.805 119.61 145.586 119.917 144.271 119.917ZM181.487 102.11C182.823 102.11 184.01 102.386 185.048 102.937C186.108 103.467 186.935 104.294 187.529 105.417C188.143 106.541 188.451 107.993 188.451 109.774V119.631H182.409V110.759C182.409 109.53 182.176 108.639 181.71 108.088C181.243 107.516 180.607 107.23 179.802 107.23C179.229 107.23 178.71 107.367 178.244 107.643C177.777 107.919 177.417 108.343 177.163 108.915C176.908 109.466 176.781 110.187 176.781 111.077V119.631H170.739V110.759C170.739 109.53 170.506 108.639 170.04 108.088C169.595 107.516 168.959 107.23 168.132 107.23C167.538 107.23 167.009 107.367 166.542 107.643C166.097 107.919 165.737 108.343 165.461 108.915C165.207 109.466 165.079 110.187 165.079 111.077V119.631H159.038V102.396H164.793V107.198L163.649 105.831C164.284 104.601 165.154 103.679 166.256 103.064C167.358 102.428 168.588 102.11 169.945 102.11C171.492 102.11 172.849 102.513 174.015 103.319C175.202 104.103 175.997 105.332 176.399 107.007L174.428 106.594C175.043 105.195 175.965 104.103 177.194 103.319C178.445 102.513 179.876 102.11 181.487 102.11Z" fill="white"/>
</g>
<defs>
<filter id="filter0_d_7237_12277" x="0.78617" y="94.0654" width="188.46" height="31.5754" filterUnits="userSpaceOnUse" color-interpolation-filters="sRGB">
<feFlood flood-opacity="0" result="BackgroundImageFix"/>
<feColorMatrix in="SourceAlpha" type="matrix" values="0 0 0 0 0 0 0 0 0 0 0 0 0 0 0 0 0 0 127 0" result="hardAlpha"/>
<feOffset dy="4.76968"/>
<feGaussianBlur stdDeviation="0.397473"/>
<feComposite in2="hardAlpha" operator="out"/>
<feColorMatrix type="matrix" values="0 0 0 0 1 0 0 0 0 1 0 0 0 0 1 0 0 0 0.1 0"/>
<feBlend mode="normal" in2="BackgroundImageFix" result="effect1_dropShadow_7237_12277"/>
<feBlend mode="normal" in="SourceGraphic" in2="effect1_dropShadow_7237_12277" result="shape"/>
</filter>
</defs>
</svg>
