<svg width="97" height="65" viewBox="0 0 97 65" fill="none" xmlns="http://www.w3.org/2000/svg">
<path d="M51.842 11.1257L56.8603 13.9472L51.9674 16.7348L47.1188 13.8827L51.842 11.1257Z" fill="#77C0D4"/>
<path d="M56.8501 13.9475L56.8501 19.587L51.9246 22.4391L51.9246 16.6551L56.8501 13.9475Z" fill="#11778D"/>
<path d="M47.1188 13.8825L47.1188 19.4917L51.9198 22.4388L51.9198 16.6548L47.1188 13.8825Z" fill="#183342"/>
<path d="M59.2096 15.1999L64.228 18.0214L59.3351 20.809L54.4865 17.9569L59.2096 15.1999Z" fill="#77C0D4"/>
<path d="M64.2179 18.0217L64.2179 23.6612L59.2924 26.5133L59.2924 20.7293L64.2179 18.0217Z" fill="#11778D"/>
<path d="M54.4866 17.9568L54.4866 23.5659L59.2876 26.5131L59.2876 20.7291L54.4866 17.9568Z" fill="#183342"/>
<path d="M52.032 19.4919L57.0504 22.3134L52.1574 25.101L47.3089 22.2489L52.032 19.4919Z" fill="#77C0D4"/>
<path d="M57.0401 22.3137L57.0401 27.9532L52.1147 30.8053L52.1147 25.0213L57.0401 22.3137Z" fill="#11778D"/>
<path d="M47.3089 22.2487L47.3089 27.8579L52.1099 30.8051L52.1099 25.021L47.3089 22.2487Z" fill="#183342"/>
<path d="M44.8067 23.6745L49.8251 26.496L44.9321 29.2836L40.0835 26.4315L44.8067 23.6745Z" fill="#77C0D4"/>
<path d="M49.8149 26.4963L49.8149 32.1358L44.8894 34.988L44.8894 29.2039L49.8149 26.4963Z" fill="#11778D"/>
<path d="M40.0835 26.4323L40.0835 32.0415L44.8846 34.9886L44.8846 29.2046L40.0835 26.4323Z" fill="#183342"/>
<path d="M37.3912 27.6676L42.4096 30.4892L37.5166 33.2768L32.6681 30.4247L37.3912 27.6676Z" fill="#77C0D4"/>
<path d="M42.3995 30.4895L42.3995 36.129L37.474 38.9811L37.474 33.1971L42.3995 30.4895Z" fill="#11778D"/>
<path d="M32.6681 30.4245L32.6681 36.0337L37.4692 38.9808L37.4692 33.1968L32.6681 30.4245Z" fill="#183342"/>
<path d="M37.3912 19.4919L42.4096 22.3134L37.5166 25.101L32.6681 22.2489L37.3912 19.4919Z" fill="#77C0D4"/>
<path d="M42.3995 22.3137L42.3995 27.9532L37.474 30.8053L37.474 25.0213L42.3995 22.3137Z" fill="#11778D"/>
<path d="M32.6681 22.2487L32.6681 27.8579L37.4692 30.8051L37.4692 25.021L32.6681 22.2487Z" fill="#183342"/>
<path d="M37.3912 11.1257L42.4096 13.9472L37.5166 16.7348L32.6681 13.8827L37.3912 11.1257Z" fill="#77C0D4"/>
<path d="M42.3995 13.9475L42.3995 19.587L37.474 22.4391L37.474 16.6551L42.3995 13.9475Z" fill="#11778D"/>
<path d="M32.6681 13.8825L32.6681 19.4917L37.4691 22.4388L37.4691 16.6548L32.6681 13.8825Z" fill="#183342"/>
<path d="M37.3912 2.75945L42.4096 5.58101L37.5166 8.36858L32.6681 5.51648L37.3912 2.75945Z" fill="#77C0D4"/>
<path d="M42.3995 5.58125L42.3995 11.2208L37.474 14.0729L37.474 8.28891L42.3995 5.58125Z" fill="#11778D"/>
<path d="M32.6681 5.51632L32.6681 11.1255L37.4691 14.0726L37.4691 8.28863L32.6681 5.51632Z" fill="#183342"/>
<path d="M44.8067 6.94304L49.8251 9.7646L44.9321 12.5522L40.0835 9.70008L44.8067 6.94304Z" fill="#77C0D4"/>
<path d="M49.8149 9.76484L49.8149 15.4044L44.8894 18.2565L44.8894 12.4725L49.8149 9.76484Z" fill="#11778D"/>
<path d="M40.0835 9.69991L40.0835 15.309L44.8846 18.2562L44.8846 12.4722L40.0835 9.69991Z" fill="#183342"/>
<path d="M51.8419 11.1266L56.8602 13.9482L51.9673 16.7358L47.1187 13.8837L51.8419 11.1266Z" fill="#77C0D4"/>
<path d="M47.1187 13.8835L47.1187 19.4926L51.0641 19.4926L51.9197 16.6558L47.1187 13.8835Z" fill="#183342"/>
<g filter="url(#filter0_d_7237_12324)">
<path d="M7.18092 61.0113C6.29863 61.0113 5.48013 60.8731 4.7254 60.5967C3.98131 60.3097 3.33288 59.9058 2.78012 59.3849C2.238 58.8641 1.8128 58.2528 1.50453 57.5513C1.19626 56.8391 1.04213 56.0578 1.04213 55.2074C1.04213 54.357 1.19626 53.581 1.50453 52.8794C1.8128 52.1672 2.238 51.5507 2.78012 51.0298C3.33288 50.5089 3.98131 50.1103 4.7254 49.8339C5.48013 49.5469 6.29863 49.4034 7.18092 49.4034C8.21202 49.4034 9.13151 49.5841 9.93939 49.9455C10.7579 50.307 11.4382 50.8278 11.9803 51.5081L9.97128 53.3259C9.60986 52.9007 9.21124 52.5765 8.77541 52.3532C8.35021 52.13 7.87186 52.0184 7.34037 52.0184C6.88328 52.0184 6.4634 52.0928 6.08072 52.2416C5.69804 52.3904 5.36851 52.6083 5.09213 52.8954C4.82639 53.1717 4.61379 53.5066 4.45434 53.8999C4.30552 54.2932 4.23111 54.729 4.23111 55.2074C4.23111 55.6857 4.30552 56.1215 4.45434 56.5149C4.61379 56.9082 4.82639 57.2483 5.09213 57.5353C5.36851 57.8117 5.69804 58.0243 6.08072 58.1731C6.4634 58.3219 6.88328 58.3963 7.34037 58.3963C7.87186 58.3963 8.35021 58.2847 8.77541 58.0615C9.21124 57.8383 9.60986 57.5141 9.97128 57.0889L11.9803 58.9066C11.4382 59.5763 10.7579 60.0971 9.93939 60.4692C9.13151 60.8306 8.21202 61.0113 7.18092 61.0113ZM17.3012 60.9316C16.3551 60.9316 15.5154 60.7403 14.7819 60.3576C14.0484 59.9749 13.4691 59.4487 13.0439 58.779C12.6293 58.0987 12.4221 57.3227 12.4221 56.4511C12.4221 55.5794 12.6293 54.8087 13.0439 54.1391C13.4691 53.4694 14.0484 52.9485 14.7819 52.5765C15.5154 52.1938 16.3551 52.0024 17.3012 52.0024C18.2473 52.0024 19.087 52.1938 19.8205 52.5765C20.5646 52.9485 21.1439 53.4694 21.5585 54.1391C21.9731 54.8087 22.1803 55.5794 22.1803 56.4511C22.1803 57.3227 21.9731 58.0987 21.5585 58.779C21.1439 59.4487 20.5646 59.9749 19.8205 60.3576C19.087 60.7403 18.2473 60.9316 17.3012 60.9316ZM17.3012 58.5239C17.652 58.5239 17.9603 58.4442 18.226 58.2847C18.5024 58.1253 18.7203 57.8914 18.8797 57.5832C19.0392 57.2643 19.1189 56.8869 19.1189 56.4511C19.1189 56.0152 19.0392 55.6485 18.8797 55.3509C18.7203 55.0426 18.5024 54.8087 18.226 54.6493C17.9603 54.4898 17.652 54.4101 17.3012 54.4101C16.961 54.4101 16.6528 54.4898 16.3764 54.6493C16.1106 54.8087 15.8927 55.0426 15.7227 55.3509C15.5632 55.6485 15.4835 56.0152 15.4835 56.4511C15.4835 56.8869 15.5632 57.2643 15.7227 57.5832C15.8927 57.8914 16.1106 58.1253 16.3764 58.2847C16.6528 58.4442 16.961 58.5239 17.3012 58.5239ZM29.2123 52.0024C29.882 52.0024 30.4879 52.1406 31.03 52.417C31.5721 52.6828 31.9973 53.0973 32.3056 53.6607C32.6245 54.2241 32.784 54.9522 32.784 55.8452V60.7881H29.7544V56.3395C29.7544 55.7229 29.6269 55.2765 29.3717 55.0001C29.1273 54.7131 28.7818 54.5696 28.3353 54.5696C28.0164 54.5696 27.7241 54.644 27.4584 54.7928C27.1926 54.931 26.9853 55.1489 26.8365 55.4465C26.6877 55.7442 26.6133 56.1322 26.6133 56.6105V60.7881H23.5837V52.1459H26.4698V54.6015L25.9117 53.8839C26.2412 53.2568 26.693 52.7891 27.267 52.4808C27.841 52.1619 28.4895 52.0024 29.2123 52.0024ZM38.5447 60.9316C37.4392 60.9316 36.5781 60.6605 35.9616 60.1184C35.3451 59.5656 35.0368 58.7365 35.0368 57.631V50.2166H38.0663V57.5991C38.0663 57.9074 38.1514 58.1519 38.3215 58.3326C38.4915 58.5026 38.7094 58.5877 38.9752 58.5877C39.3366 58.5877 39.6449 58.4973 39.9 58.3166L40.6494 60.4373C40.3943 60.6074 40.0807 60.7296 39.7087 60.804C39.3366 60.8891 38.9486 60.9316 38.5447 60.9316ZM33.7772 54.729V52.4648H40.0435V54.729H33.7772ZM41.8176 60.7881V52.1459H44.8472V60.7881H41.8176ZM43.3324 51.1892C42.7796 51.1892 42.3332 51.0351 41.993 50.7268C41.6529 50.4186 41.4828 50.0359 41.4828 49.5788C41.4828 49.1217 41.6529 48.739 41.993 48.4308C42.3332 48.1225 42.7796 47.9684 43.3324 47.9684C43.8851 47.9684 44.3316 48.1172 44.6718 48.4148C45.0119 48.7018 45.182 49.0739 45.182 49.531C45.182 50.0093 45.0119 50.4079 44.6718 50.7268C44.3422 51.0351 43.8958 51.1892 43.3324 51.1892ZM52.4445 52.0024C53.1142 52.0024 53.7201 52.1406 54.2622 52.417C54.8044 52.6828 55.2296 53.0973 55.5378 53.6607C55.8567 54.2241 56.0162 54.9522 56.0162 55.8452V60.7881H52.9867V56.3395C52.9867 55.7229 52.8591 55.2765 52.604 55.0001C52.3595 54.7131 52.014 54.5696 51.5676 54.5696C51.2487 54.5696 50.9563 54.644 50.6906 54.7928C50.4248 54.931 50.2176 55.1489 50.0687 55.4465C49.9199 55.7442 49.8455 56.1322 49.8455 56.6105V60.7881H46.816V52.1459H49.702V54.6015L49.1439 53.8839C49.4735 53.2568 49.9252 52.7891 50.4992 52.4808C51.0733 52.1619 51.7217 52.0024 52.4445 52.0024ZM61.5537 60.9316C60.8521 60.9316 60.2196 60.7934 59.6562 60.517C59.1035 60.2406 58.6676 59.8101 58.3488 59.2255C58.0405 58.6302 57.8863 57.8808 57.8863 56.9773V52.1459H60.9159V56.483C60.9159 57.1526 61.0381 57.631 61.2826 57.918C61.5377 58.205 61.8938 58.3485 62.3509 58.3485C62.6486 58.3485 62.9196 58.2794 63.1641 58.1412C63.4086 58.003 63.6053 57.7851 63.7541 57.4875C63.9029 57.1792 63.9773 56.7859 63.9773 56.3076V52.1459H67.0068V60.7881H64.1208V58.3485L64.6789 59.0341C64.3812 59.6719 63.9507 60.1503 63.3873 60.4692C62.824 60.7775 62.2127 60.9316 61.5537 60.9316ZM72.5937 60.9316C71.8921 60.9316 71.2596 60.7934 70.6962 60.517C70.1435 60.2406 69.7076 59.8101 69.3887 59.2255C69.0805 58.6302 68.9263 57.8808 68.9263 56.9773V52.1459H71.9559V56.483C71.9559 57.1526 72.0781 57.631 72.3226 57.918C72.5777 58.205 72.9338 58.3485 73.3909 58.3485C73.6885 58.3485 73.9596 58.2794 74.2041 58.1412C74.4486 58.003 74.6452 57.7851 74.7941 57.4875C74.9429 57.1792 75.0173 56.7859 75.0173 56.3076V52.1459H78.0468V60.7881H75.1608V58.3485L75.7189 59.0341C75.4212 59.6719 74.9907 60.1503 74.4273 60.4692C73.8639 60.7775 73.2527 60.9316 72.5937 60.9316ZM91.2553 52.0024C91.925 52.0024 92.5203 52.1406 93.0411 52.417C93.5726 52.6828 93.9872 53.0973 94.2848 53.6607C94.5931 54.2241 94.7472 54.9522 94.7472 55.8452V60.7881H91.7177V56.3395C91.7177 55.7229 91.6008 55.2765 91.3669 55.0001C91.1331 54.7131 90.8142 54.5696 90.4102 54.5696C90.1232 54.5696 89.8628 54.6387 89.6289 54.7769C89.3951 54.915 89.2144 55.1276 89.0868 55.4147C88.9592 55.691 88.8955 56.0524 88.8955 56.4989V60.7881H85.8659V56.3395C85.8659 55.7229 85.749 55.2765 85.5151 55.0001C85.2919 54.7131 84.973 54.5696 84.5584 54.5696C84.2608 54.5696 83.9951 54.6387 83.7612 54.7769C83.538 54.915 83.3573 55.1276 83.2191 55.4147C83.0915 55.691 83.0277 56.0524 83.0277 56.4989V60.7881H79.9982V52.1459H82.8842V54.5536L82.3102 53.868C82.6291 53.2515 83.0649 52.7891 83.6177 52.4808C84.1704 52.1619 84.787 52.0024 85.4673 52.0024C86.2433 52.0024 86.9236 52.2044 87.5083 52.6083C88.1035 53.0017 88.5021 53.6182 88.7041 54.458L87.7155 54.2507C88.0238 53.5491 88.4862 53.0017 89.1027 52.6083C89.7299 52.2044 90.4474 52.0024 91.2553 52.0024Z" fill="white"/>
</g>
<defs>
<filter id="filter0_d_7237_12324" x="0.643492" y="47.9688" width="94.5023" height="15.8333" filterUnits="userSpaceOnUse" color-interpolation-filters="sRGB">
<feFlood flood-opacity="0" result="BackgroundImageFix"/>
<feColorMatrix in="SourceAlpha" type="matrix" values="0 0 0 0 0 0 0 0 0 0 0 0 0 0 0 0 0 0 127 0" result="hardAlpha"/>
<feOffset dy="2.39174"/>
<feGaussianBlur stdDeviation="0.199311"/>
<feComposite in2="hardAlpha" operator="out"/>
<feColorMatrix type="matrix" values="0 0 0 0 1 0 0 0 0 1 0 0 0 0 1 0 0 0 0.1 0"/>
<feBlend mode="normal" in2="BackgroundImageFix" result="effect1_dropShadow_7237_12324"/>
<feBlend mode="normal" in="SourceGraphic" in2="effect1_dropShadow_7237_12324" result="shape"/>
</filter>
</defs>
</svg>
