<svg width="49" height="34" viewBox="0 0 49 34" fill="none" xmlns="http://www.w3.org/2000/svg">
<path d="M26.1723 5.87322L28.6837 7.28522L26.2351 8.6802L23.8087 7.25292L26.1723 5.87322Z" fill="#77C0D4"/>
<path d="M28.6787 7.28569L28.6787 10.1079L26.2138 11.5352L26.2138 8.64069L28.6787 7.28569Z" fill="#11778D"/>
<path d="M23.8088 7.25274L23.8088 10.0597L26.2114 11.5346L26.2114 8.64008L23.8088 7.25274Z" fill="#183342"/>
<path d="M29.8595 7.91131L32.3708 9.3233L29.9222 10.7183L27.4959 9.29101L29.8595 7.91131Z" fill="#77C0D4"/>
<path d="M32.3658 9.32378L32.3658 12.146L29.9009 13.5733L29.9009 10.6788L32.3658 9.32378Z" fill="#11778D"/>
<path d="M27.4959 9.29082L27.4959 12.0978L29.8985 13.5727L29.8985 10.6782L27.4959 9.29082Z" fill="#183342"/>
<path d="M26.2674 10.0597L28.7788 11.4717L26.3302 12.8667L23.9038 11.4394L26.2674 10.0597Z" fill="#77C0D4"/>
<path d="M28.7738 11.4722L28.7738 14.2944L26.3089 15.7217L26.3089 12.8272L28.7738 11.4722Z" fill="#11778D"/>
<path d="M23.9039 11.4393L23.9039 14.2462L26.3065 15.7211L26.3065 12.8266L23.9039 11.4393Z" fill="#183342"/>
<path d="M22.6517 12.1525L25.163 13.5645L22.7145 14.9595L20.2881 13.5322L22.6517 12.1525Z" fill="#77C0D4"/>
<path d="M25.158 13.565L25.158 16.3872L22.6932 17.8145L22.6932 14.92L25.158 13.565Z" fill="#11778D"/>
<path d="M20.2882 13.533L20.2882 16.34L22.6907 17.8148L22.6907 14.9204L20.2882 13.533Z" fill="#183342"/>
<path d="M18.9409 14.1506L21.4522 15.5626L19.0037 16.9575L16.5773 15.5303L18.9409 14.1506Z" fill="#77C0D4"/>
<path d="M21.4471 15.563L21.4471 18.3852L18.9822 19.8125L18.9822 16.918L21.4471 15.563Z" fill="#11778D"/>
<path d="M16.5773 15.5301L16.5773 18.3371L18.9799 19.8119L18.9799 16.9174L16.5773 15.5301Z" fill="#183342"/>
<path d="M18.9408 10.0597L21.4521 11.4717L19.0035 12.8667L16.5772 11.4394L18.9408 10.0597Z" fill="#77C0D4"/>
<path d="M21.4471 11.4722L21.4471 14.2944L18.9822 15.7217L18.9822 12.8272L21.4471 11.4722Z" fill="#11778D"/>
<path d="M16.5773 11.4393L16.5773 14.2462L18.9799 15.7211L18.9799 12.8266L16.5773 11.4393Z" fill="#183342"/>
<path d="M18.9409 5.87322L21.4522 7.28522L19.0037 8.6802L16.5773 7.25292L18.9409 5.87322Z" fill="#77C0D4"/>
<path d="M21.4471 7.28569L21.4471 10.1079L18.9822 11.5352L18.9822 8.64069L21.4471 7.28569Z" fill="#11778D"/>
<path d="M16.5773 7.25274L16.5773 10.0597L18.9799 11.5346L18.9799 8.64008L16.5773 7.25274Z" fill="#183342"/>
<path d="M18.9409 1.68572L21.4522 3.09772L19.0037 4.4927L16.5773 3.06542L18.9409 1.68572Z" fill="#77C0D4"/>
<path d="M21.4471 3.09819L21.4471 5.92039L18.9822 7.34767L18.9822 4.45319L21.4471 3.09819Z" fill="#11778D"/>
<path d="M16.5772 3.06524L16.5772 5.87221L18.9798 7.34707L18.9798 4.45258L16.5772 3.06524Z" fill="#183342"/>
<path d="M22.6517 3.77947L25.163 5.19147L22.7145 6.58645L20.2881 5.15917L22.6517 3.77947Z" fill="#77C0D4"/>
<path d="M25.158 5.19194L25.158 8.01414L22.6932 9.44142L22.6932 6.54694L25.158 5.19194Z" fill="#11778D"/>
<path d="M20.2882 5.15899L20.2882 7.96596L22.6907 9.44082L22.6907 6.54633L20.2882 5.15899Z" fill="#183342"/>
<path d="M26.1723 5.87322L28.6837 7.28522L26.2351 8.6802L23.8087 7.25292L26.1723 5.87322Z" fill="#77C0D4"/>
<path d="M23.8088 7.25274L23.8088 10.0597L25.7832 10.0597L26.2114 8.64008L23.8088 7.25274Z" fill="#183342"/>
<g filter="url(#filter0_d_7237_12366)">
<path d="M3.84333 31.3305C3.40181 31.3305 2.9922 31.2613 2.61452 31.123C2.24215 30.9794 1.91766 30.7772 1.64104 30.5166C1.36974 30.2559 1.15696 29.95 1.0027 29.599C0.84843 29.2425 0.771296 28.8516 0.771296 28.426C0.771296 28.0004 0.84843 27.6121 1.0027 27.261C1.15696 26.9046 1.36974 26.5961 1.64104 26.3354C1.91766 26.0748 2.24215 25.8753 2.61452 25.737C2.9922 25.5933 3.40181 25.5215 3.84333 25.5215C4.35932 25.5215 4.81946 25.612 5.22375 25.7928C5.63335 25.9737 5.9738 26.2343 6.2451 26.5748L5.23971 27.4844C5.05884 27.2717 4.85936 27.1094 4.64126 26.9977C4.42848 26.886 4.1891 26.8301 3.92312 26.8301C3.69438 26.8301 3.48426 26.8674 3.29276 26.9418C3.10125 27.0163 2.93635 27.1254 2.79804 27.269C2.66505 27.4073 2.55866 27.5749 2.47887 27.7717C2.40439 27.9685 2.36716 28.1866 2.36716 28.426C2.36716 28.6654 2.40439 28.8835 2.47887 29.0803C2.55866 29.2771 2.66505 29.4473 2.79804 29.591C2.93635 29.7293 3.10125 29.8357 3.29276 29.9101C3.48426 29.9846 3.69438 30.0219 3.92312 30.0219C4.1891 30.0219 4.42848 29.966 4.64126 29.8543C4.85936 29.7426 5.05884 29.5803 5.23971 29.3676L6.2451 30.2772C5.9738 30.6123 5.63335 30.873 5.22375 31.0592C4.81946 31.24 4.35932 31.3305 3.84333 31.3305ZM8.90782 31.2906C8.43438 31.2906 8.01413 31.1948 7.64709 31.0033C7.28004 30.8118 6.99012 30.5485 6.77734 30.2134C6.56988 29.8729 6.46615 29.4846 6.46615 29.0484C6.46615 28.6122 6.56988 28.2265 6.77734 27.8914C6.99012 27.5563 7.28004 27.2956 7.64709 27.1094C8.01413 26.9179 8.43438 26.8222 8.90782 26.8222C9.38125 26.8222 9.8015 26.9179 10.1685 27.1094C10.5409 27.2956 10.8308 27.5563 11.0383 27.8914C11.2458 28.2265 11.3495 28.6122 11.3495 29.0484C11.3495 29.4846 11.2458 29.8729 11.0383 30.2134C10.8308 30.5485 10.5409 30.8118 10.1685 31.0033C9.8015 31.1948 9.38125 31.2906 8.90782 31.2906ZM8.90782 30.0857C9.08336 30.0857 9.23763 30.0458 9.37061 29.966C9.50892 29.8862 9.61797 29.7692 9.69777 29.6149C9.77756 29.4553 9.81746 29.2665 9.81746 29.0484C9.81746 28.8303 9.77756 28.6468 9.69777 28.4978C9.61797 28.3435 9.50892 28.2265 9.37061 28.1467C9.23763 28.0669 9.08336 28.027 8.90782 28.027C8.73759 28.027 8.58332 28.0669 8.44502 28.1467C8.31203 28.2265 8.20298 28.3435 8.11786 28.4978C8.03807 28.6468 7.99817 28.8303 7.99817 29.0484C7.99817 29.2665 8.03807 29.4553 8.11786 29.6149C8.20298 29.7692 8.31203 29.8862 8.44502 29.966C8.58332 30.0458 8.73759 30.0857 8.90782 30.0857ZM14.8685 26.8222C15.2036 26.8222 15.5068 26.8913 15.7781 27.0296C16.0494 27.1626 16.2622 27.3701 16.4165 27.652C16.576 27.9339 16.6558 28.2983 16.6558 28.7452V31.2188H15.1398V28.9925C15.1398 28.684 15.0759 28.4606 14.9483 28.3223C14.8259 28.1786 14.653 28.1068 14.4296 28.1068C14.27 28.1068 14.1237 28.1441 13.9908 28.2185C13.8578 28.2877 13.754 28.3967 13.6796 28.5457C13.6051 28.6946 13.5679 28.8888 13.5679 29.1282V31.2188H12.0518V26.894H13.496V28.1228L13.2168 27.7637C13.3817 27.4499 13.6077 27.2158 13.895 27.0615C14.1823 26.9019 14.5068 26.8222 14.8685 26.8222ZM19.5387 31.2906C18.9854 31.2906 18.5546 31.1549 18.246 30.8836C17.9375 30.607 17.7832 30.1921 17.7832 29.6388V25.9285H19.2993V29.6229C19.2993 29.7772 19.3419 29.8995 19.427 29.9899C19.5121 30.075 19.6211 30.1176 19.7541 30.1176C19.935 30.1176 20.0892 30.0724 20.2169 29.982L20.5919 31.0432C20.4643 31.1283 20.3074 31.1895 20.1212 31.2267C19.935 31.2693 19.7408 31.2906 19.5387 31.2906ZM17.1529 28.1866V27.0536H20.2887V28.1866H17.1529ZM21.1766 31.2188V26.894H22.6926V31.2188H21.1766ZM21.9346 26.4152C21.658 26.4152 21.4346 26.3381 21.2643 26.1838C21.0941 26.0295 21.009 25.838 21.009 25.6093C21.009 25.3806 21.0941 25.1891 21.2643 25.0348C21.4346 24.8805 21.658 24.8034 21.9346 24.8034C22.2112 24.8034 22.4346 24.8779 22.6048 25.0268C22.7751 25.1704 22.8602 25.3566 22.8602 25.5854C22.8602 25.8247 22.7751 26.0242 22.6048 26.1838C22.4399 26.3381 22.2165 26.4152 21.9346 26.4152ZM26.4946 26.8222C26.8297 26.8222 27.1329 26.8913 27.4042 27.0296C27.6755 27.1626 27.8883 27.3701 28.0426 27.652C28.2021 27.9339 28.2819 28.2983 28.2819 28.7452V31.2188H26.7659V28.9925C26.7659 28.684 26.702 28.4606 26.5744 28.3223C26.452 28.1786 26.2791 28.1068 26.0557 28.1068C25.8961 28.1068 25.7498 28.1441 25.6168 28.2185C25.4839 28.2877 25.3801 28.3967 25.3057 28.5457C25.2312 28.6946 25.1939 28.8888 25.1939 29.1282V31.2188H23.6779V26.894H25.1221V28.1228L24.8429 27.7637C25.0078 27.4499 25.2338 27.2158 25.5211 27.0615C25.8084 26.9019 26.1328 26.8222 26.4946 26.8222ZM31.0531 31.2906C30.702 31.2906 30.3855 31.2214 30.1035 31.0831C29.8269 30.9448 29.6088 30.7294 29.4492 30.4368C29.295 30.1389 29.2178 29.7639 29.2178 29.3117V26.894H30.7339V29.0643C30.7339 29.3995 30.7951 29.6388 30.9174 29.7825C31.0451 29.9261 31.2233 29.9979 31.452 29.9979C31.601 29.9979 31.7366 29.9633 31.859 29.8942C31.9813 29.825 32.0797 29.716 32.1542 29.567C32.2287 29.4128 32.2659 29.2159 32.2659 28.9766V26.894H33.782V31.2188H32.3377V29.9979L32.617 30.341C32.4681 30.6602 32.2526 30.8996 31.9707 31.0592C31.6887 31.2134 31.3829 31.2906 31.0531 31.2906ZM36.5778 31.2906C36.2267 31.2906 35.9102 31.2214 35.6283 31.0831C35.3516 30.9448 35.1335 30.7294 34.9739 30.4368C34.8197 30.1389 34.7425 29.7639 34.7425 29.3117V26.894H36.2586V29.0643C36.2586 29.3995 36.3198 29.6388 36.4421 29.7825C36.5698 29.9261 36.748 29.9979 36.9768 29.9979C37.1257 29.9979 37.2613 29.9633 37.3837 29.8942C37.506 29.825 37.6045 29.716 37.6789 29.567C37.7534 29.4128 37.7906 29.2159 37.7906 28.9766V26.894H39.3067V31.2188H37.8625V29.9979L38.1417 30.341C37.9928 30.6602 37.7773 30.8996 37.4954 31.0592C37.2135 31.2134 36.9076 31.2906 36.5778 31.2906ZM45.9166 26.8222C46.2518 26.8222 46.5497 26.8913 46.8103 27.0296C47.0763 27.1626 47.2838 27.3701 47.4327 27.652C47.587 27.9339 47.6641 28.2983 47.6641 28.7452V31.2188H46.148V28.9925C46.148 28.684 46.0895 28.4606 45.9725 28.3223C45.8555 28.1786 45.6959 28.1068 45.4937 28.1068C45.3501 28.1068 45.2198 28.1414 45.1027 28.2106C44.9857 28.2797 44.8953 28.3861 44.8314 28.5297C44.7676 28.668 44.7357 28.8489 44.7357 29.0723V31.2188H43.2196V28.9925C43.2196 28.684 43.1611 28.4606 43.0441 28.3223C42.9324 28.1786 42.7728 28.1068 42.5653 28.1068C42.4164 28.1068 42.2834 28.1414 42.1664 28.2106C42.0546 28.2797 41.9642 28.3861 41.8951 28.5297C41.8312 28.668 41.7993 28.8489 41.7993 29.0723V31.2188H40.2832V26.894H41.7275V28.0988L41.4402 27.7557C41.5998 27.4472 41.8179 27.2158 42.0945 27.0615C42.3712 26.9019 42.6797 26.8222 43.0201 26.8222C43.4085 26.8222 43.7489 26.9232 44.0415 27.1254C44.3394 27.3222 44.5389 27.6307 44.6399 28.051L44.1452 27.9472C44.2995 27.5961 44.5309 27.3222 44.8394 27.1254C45.1533 26.9232 45.5123 26.8222 45.9166 26.8222Z" fill="white"/>
</g>
<defs>
<filter id="filter0_d_7237_12366" x="0.571819" y="24.8037" width="47.2917" height="7.92275" filterUnits="userSpaceOnUse" color-interpolation-filters="sRGB">
<feFlood flood-opacity="0" result="BackgroundImageFix"/>
<feColorMatrix in="SourceAlpha" type="matrix" values="0 0 0 0 0 0 0 0 0 0 0 0 0 0 0 0 0 0 127 0" result="hardAlpha"/>
<feOffset dy="1.1969"/>
<feGaussianBlur stdDeviation="0.0997413"/>
<feComposite in2="hardAlpha" operator="out"/>
<feColorMatrix type="matrix" values="0 0 0 0 1 0 0 0 0 1 0 0 0 0 1 0 0 0 0.1 0"/>
<feBlend mode="normal" in2="BackgroundImageFix" result="effect1_dropShadow_7237_12366"/>
<feBlend mode="normal" in="SourceGraphic" in2="effect1_dropShadow_7237_12366" result="shape"/>
</filter>
</defs>
</svg>
