<svg width="32" height="32" viewBox="0 0 32 32" fill="none" xmlns="http://www.w3.org/2000/svg">
<path d="M18.9776 8.281L22.8915 10.4816L19.0754 12.6557L15.2938 10.4313L18.9776 8.281Z" fill="#77C0D4"/>
<path d="M22.8837 10.4815L22.8837 14.88L19.0422 17.1044L19.0422 12.5933L22.8837 10.4815Z" fill="#11778D"/>
<path d="M15.2939 10.4318L15.2939 14.8065L19.0384 17.1051L19.0384 12.594L15.2939 10.4318Z" fill="#183342"/>
<path d="M24.7242 11.4578L28.6381 13.6584L24.822 15.8325L21.0404 13.608L24.7242 11.4578Z" fill="#77C0D4"/>
<path d="M28.6301 13.6583L28.6301 18.0567L24.7886 20.2812L24.7886 15.7701L28.6301 13.6583Z" fill="#11778D"/>
<path d="M21.0404 13.6075L21.0404 17.9823L24.7849 20.2808L24.7849 15.7697L21.0404 13.6075Z" fill="#183342"/>
<path d="M19.126 14.8054L23.04 17.006L19.2238 19.1801L15.4423 16.9557L19.126 14.8054Z" fill="#77C0D4"/>
<path d="M23.032 17.0059L23.032 21.4044L19.1905 23.6288L19.1905 19.1177L23.032 17.0059Z" fill="#11778D"/>
<path d="M15.4423 16.9552L15.4423 21.3299L19.1867 23.6285L19.1867 19.1174L15.4423 16.9552Z" fill="#183342"/>
<path d="M13.4906 18.0681L17.4046 20.2687L13.5884 22.4428L9.8069 20.2184L13.4906 18.0681Z" fill="#77C0D4"/>
<path d="M17.3966 20.2686L17.3966 24.6671L13.5551 26.8915L13.5551 22.3804L17.3966 20.2686Z" fill="#11778D"/>
<path d="M9.80689 20.2189L9.80689 24.5936L13.5514 26.8922L13.5514 22.3811L9.80689 20.2189Z" fill="#183342"/>
<path d="M7.70719 21.1833L11.6212 23.384L7.805 25.5581L4.02346 23.3336L7.70719 21.1833Z" fill="#77C0D4"/>
<path d="M11.6132 23.3848L11.6132 27.7833L7.77165 30.0077L7.77165 25.4966L11.6132 23.3848Z" fill="#11778D"/>
<path d="M4.02344 23.3341L4.02344 27.7088L7.76791 30.0074L7.76791 25.4963L4.02344 23.3341Z" fill="#183342"/>
<path d="M7.70719 14.8054L11.6212 17.006L7.805 19.1801L4.02346 16.9557L7.70719 14.8054Z" fill="#77C0D4"/>
<path d="M11.6132 17.0059L11.6132 21.4044L7.77165 23.6288L7.77165 19.1177L11.6132 17.0059Z" fill="#11778D"/>
<path d="M4.02344 16.9552L4.02344 21.3299L7.76791 23.6285L7.76791 19.1174L4.02344 16.9552Z" fill="#183342"/>
<path d="M7.70719 8.281L11.6212 10.4816L7.805 12.6557L4.02346 10.4313L7.70719 8.281Z" fill="#77C0D4"/>
<path d="M11.6132 10.4815L11.6132 14.88L7.77165 17.1044L7.77165 12.5933L11.6132 10.4815Z" fill="#11778D"/>
<path d="M4.02344 10.4318L4.02344 14.8065L7.76791 17.1051L7.76791 12.594L4.02344 10.4318Z" fill="#183342"/>
<path d="M7.70719 1.75561L11.6212 3.95623L7.805 6.13034L4.02346 3.9059L7.70719 1.75561Z" fill="#77C0D4"/>
<path d="M11.6132 3.95613L11.6132 8.35458L7.77165 10.579L7.77165 6.06791L11.6132 3.95613Z" fill="#11778D"/>
<path d="M4.02344 3.90637L4.02344 8.28109L7.76791 10.5797L7.76791 6.06857L4.02344 3.90637Z" fill="#183342"/>
<path d="M13.4906 5.01928L17.4046 7.2199L13.5884 9.39401L9.8069 7.16957L13.4906 5.01928Z" fill="#77C0D4"/>
<path d="M17.3966 7.2198L17.3966 11.6183L13.5551 13.8427L13.5551 9.33158L17.3966 7.2198Z" fill="#11778D"/>
<path d="M9.80689 7.16906L9.80689 11.5438L13.5514 13.8424L13.5514 9.33127L9.80689 7.16906Z" fill="#183342"/>
<path d="M18.9776 8.28198L22.8915 10.4826L19.0754 12.6567L15.2938 10.4323L18.9776 8.28198Z" fill="#77C0D4"/>
<path d="M15.2938 10.4318L15.2938 14.8065L18.371 14.8065L19.0383 12.594L15.2938 10.4318Z" fill="#183342"/>
</svg>
