<svg width="12" height="12" viewBox="0 0 12 12" fill="none" xmlns="http://www.w3.org/2000/svg">
<path d="M7.11662 3.1055L8.58436 3.93073L7.1533 4.74602L5.73522 3.91186L7.11662 3.1055Z" fill="#77C0D4"/>
<path d="M8.58133 3.93082L8.58134 5.58023L7.14076 6.4144L7.14076 4.72273L8.58133 3.93082Z" fill="#11778D"/>
<path d="M5.73519 3.91191V5.55243L7.13936 6.4144L7.13936 4.72274L5.73519 3.91191Z" fill="#183342"/>
<path d="M9.27153 4.29593L10.7393 5.12116L9.30821 5.93645L7.89013 5.10229L9.27153 4.29593Z" fill="#77C0D4"/>
<path d="M10.7362 5.12124L10.7362 6.77066L9.29567 7.60483L9.29567 5.91316L10.7362 5.12124Z" fill="#11778D"/>
<path d="M7.89009 5.10234V6.74286L9.29427 7.60483L9.29427 5.91316L7.89009 5.10234Z" fill="#183342"/>
<path d="M7.17216 5.55179L8.6399 6.37702L7.20884 7.19231L5.79076 6.35814L7.17216 5.55179Z" fill="#77C0D4"/>
<path d="M8.63688 6.3771L8.63688 8.02652L7.19631 8.86069L7.19631 7.16902L8.63688 6.3771Z" fill="#11778D"/>
<path d="M5.79073 6.3582V7.99872L7.1949 8.86069L7.1949 7.16902L5.79073 6.3582Z" fill="#183342"/>
<path d="M5.05901 6.77542L6.52674 7.60065L5.09568 8.41594L3.6776 7.58178L5.05901 6.77542Z" fill="#77C0D4"/>
<path d="M6.52372 7.60074L6.52372 9.25016L5.08315 10.0843L5.08315 8.39265L6.52372 7.60074Z" fill="#11778D"/>
<path d="M3.67757 7.58183V9.22235L5.08174 10.0843L5.08174 8.39266L3.67757 7.58183Z" fill="#183342"/>
<path d="M2.89018 7.94436L4.35792 8.7696L2.92686 9.58489L1.50878 8.75072L2.89018 7.94436Z" fill="#77C0D4"/>
<path d="M4.35489 8.76968L4.3549 10.4191L2.91432 11.2533L2.91432 9.5616L4.35489 8.76968Z" fill="#11778D"/>
<path d="M1.50874 8.75078V10.3913L2.91292 11.2533L2.91292 9.5616L1.50874 8.75078Z" fill="#183342"/>
<path d="M2.89018 5.55179L4.35792 6.37702L2.92686 7.19231L1.50878 6.35814L2.89018 5.55179Z" fill="#77C0D4"/>
<path d="M4.35489 6.3771L4.3549 8.02652L2.91432 8.86069L2.91432 7.16902L4.35489 6.3771Z" fill="#11778D"/>
<path d="M1.50874 6.3582V7.99872L2.91292 8.86069L2.91292 7.16902L1.50874 6.3582Z" fill="#183342"/>
<path d="M2.89018 3.1055L4.35792 3.93073L2.92686 4.74602L1.50878 3.91186L2.89018 3.1055Z" fill="#77C0D4"/>
<path d="M4.35489 3.93082L4.3549 5.58023L2.91432 6.4144L2.91432 4.72273L4.35489 3.93082Z" fill="#11778D"/>
<path d="M1.50874 3.91191V5.55243L2.91292 6.4144L2.91292 4.72274L1.50874 3.91191Z" fill="#183342"/>
<path d="M2.89018 0.658231L4.35792 1.48346L2.92686 2.29875L1.50878 1.46459L2.89018 0.658231Z" fill="#77C0D4"/>
<path d="M4.35489 1.48355L4.3549 3.13297L2.91432 3.96713L2.91432 2.27547L4.35489 1.48355Z" fill="#11778D"/>
<path d="M1.50874 1.46464V3.10517L2.91292 3.96713L2.91292 2.27547L1.50874 1.46464Z" fill="#183342"/>
<path d="M5.05901 1.88284L6.52674 2.70807L5.09568 3.52336L3.6776 2.6892L5.05901 1.88284Z" fill="#77C0D4"/>
<path d="M6.52372 2.70816L6.52372 4.35758L5.08315 5.19174L5.08315 3.50008L6.52372 2.70816Z" fill="#11778D"/>
<path d="M3.67757 2.68925V4.32977L5.08174 5.19174L5.08174 3.50008L3.67757 2.68925Z" fill="#183342"/>
<path d="M7.11662 3.10647L8.58436 3.93171L7.1533 4.747L5.73522 3.91283L7.11662 3.10647Z" fill="#77C0D4"/>
<path d="M5.73519 3.91289V5.55341L6.88911 5.55341L7.13936 4.72371L5.73519 3.91289Z" fill="#183342"/>
</svg>
