<svg width="256" height="256" viewBox="0 0 256 256" fill="none" xmlns="http://www.w3.org/2000/svg">
<path d="M151.821 66.248L183.133 83.8529L152.604 101.246L122.351 83.4503L151.821 66.248Z" fill="#77C0D4"/>
<path d="M183.07 83.8522L183.07 119.04L152.338 136.835L152.338 100.746L183.07 83.8522Z" fill="#11778D"/>
<path d="M122.352 83.4541L122.352 118.452L152.307 136.841L152.307 100.752L122.352 83.4541Z" fill="#183342"/>
<path d="M197.793 91.6582L229.105 109.263L198.575 126.656L168.323 108.86L197.793 91.6582Z" fill="#77C0D4"/>
<path d="M229.041 109.262L229.041 144.45L198.309 162.245L198.309 126.157L229.041 109.262Z" fill="#11778D"/>
<path d="M168.323 108.856L168.323 143.854L198.279 162.243L198.279 126.154L168.323 108.856Z" fill="#183342"/>
<path d="M153.007 118.443L184.319 136.048L153.79 153.441L123.538 135.646L153.007 118.443Z" fill="#77C0D4"/>
<path d="M184.256 136.047L184.256 171.235L153.524 189.031L153.524 152.942L184.256 136.047Z" fill="#11778D"/>
<path d="M123.538 135.642L123.538 170.639L153.494 189.028L153.494 152.939L123.538 135.642Z" fill="#183342"/>
<path d="M107.926 144.547L139.237 162.152L108.708 179.545L78.4557 161.749L107.926 144.547Z" fill="#77C0D4"/>
<path d="M139.174 162.151L139.174 197.339L108.442 215.134L108.442 179.045L139.174 162.151Z" fill="#11778D"/>
<path d="M78.4556 161.749L78.4556 196.747L108.411 215.135L108.411 179.047L78.4556 161.749Z" fill="#183342"/>
<path d="M61.6577 169.467L92.9694 187.072L62.4401 204.465L32.1878 186.669L61.6577 169.467Z" fill="#77C0D4"/>
<path d="M92.9059 187.079L92.9059 222.266L62.1737 240.062L62.1737 203.973L92.9059 187.079Z" fill="#11778D"/>
<path d="M32.1877 186.673L32.1877 221.671L62.1434 240.059L62.1434 203.97L32.1877 186.673Z" fill="#183342"/>
<path d="M61.6577 118.443L92.9694 136.048L62.4401 153.441L32.1878 135.646L61.6577 118.443Z" fill="#77C0D4"/>
<path d="M92.906 136.047L92.906 171.235L62.1738 189.031L62.1738 152.942L92.906 136.047Z" fill="#11778D"/>
<path d="M32.1877 135.642L32.1877 170.639L62.1434 189.028L62.1434 152.939L32.1877 135.642Z" fill="#183342"/>
<path d="M61.6577 66.248L92.9694 83.8529L62.4401 101.246L32.1878 83.4503L61.6577 66.248Z" fill="#77C0D4"/>
<path d="M92.906 83.8522L92.906 119.04L62.1738 136.835L62.1738 100.746L92.906 83.8522Z" fill="#11778D"/>
<path d="M32.1875 83.4541L32.1875 118.452L62.1433 136.841L62.1433 100.752L32.1875 83.4541Z" fill="#183342"/>
<path d="M61.6577 14.0449L92.9694 31.6498L62.4401 49.0427L32.1878 31.2472L61.6577 14.0449Z" fill="#77C0D4"/>
<path d="M92.906 31.6491L92.906 66.8367L62.1738 84.6322L62.1738 48.5433L92.906 31.6491Z" fill="#11778D"/>
<path d="M32.1875 31.2509L32.1875 66.2487L62.1433 84.6374L62.1433 48.5486L32.1875 31.2509Z" fill="#183342"/>
<path d="M107.925 40.1542L139.237 57.7592L108.708 75.1521L78.4556 57.3566L107.925 40.1542Z" fill="#77C0D4"/>
<path d="M139.174 57.7584L139.174 92.946L108.442 110.742L108.442 74.6527L139.174 57.7584Z" fill="#11778D"/>
<path d="M78.4555 57.3525L78.4555 92.3503L108.411 110.739L108.411 74.6501L78.4555 57.3525Z" fill="#183342"/>
<path d="M151.821 66.2558L183.133 83.8607L152.603 101.254L122.351 83.4581L151.821 66.2558Z" fill="#77C0D4"/>
<path d="M122.351 83.4541L122.351 118.452L146.968 118.452L152.307 100.752L122.351 83.4541Z" fill="#183342"/>
</svg>
