<svg width="64" height="64" viewBox="0 0 64 64" fill="none" xmlns="http://www.w3.org/2000/svg">
<path d="M37.9553 16.562L45.7832 20.9632L38.1509 25.3115L30.5878 20.8626L37.9553 16.562Z" fill="#77C0D4"/>
<path d="M45.7674 20.963L45.7674 29.7599L38.0843 34.2088L38.0843 25.1866L45.7674 20.963Z" fill="#11778D"/>
<path d="M30.5879 20.8635L30.5879 29.613L38.0768 34.2101L38.0768 25.1879L30.5879 20.8635Z" fill="#183342"/>
<path d="M49.4482 22.9145L57.2761 27.3158L49.6438 31.664L42.0807 27.2151L49.4482 22.9145Z" fill="#77C0D4"/>
<path d="M57.2603 27.3156L57.2603 36.1125L49.5772 40.5614L49.5772 31.5391L57.2603 27.3156Z" fill="#11778D"/>
<path d="M42.0808 27.2141L42.0808 35.9636L49.5698 40.5607L49.5698 31.5385L42.0808 27.2141Z" fill="#183342"/>
<path d="M38.2518 29.6108L46.0797 34.0121L38.4474 38.3603L30.8843 33.9114L38.2518 29.6108Z" fill="#77C0D4"/>
<path d="M46.0639 34.0119L46.0639 42.8088L38.3808 47.2577L38.3808 38.2354L46.0639 34.0119Z" fill="#11778D"/>
<path d="M30.8844 33.9104L30.8844 42.6598L38.3733 47.257L38.3733 38.2348L30.8844 33.9104Z" fill="#183342"/>
<path d="M26.9814 36.1362L34.8093 40.5375L27.177 44.8857L19.6139 40.4368L26.9814 36.1362Z" fill="#77C0D4"/>
<path d="M34.7934 40.5373L34.7934 49.3342L27.1103 53.783L27.1103 44.7608L34.7934 40.5373Z" fill="#11778D"/>
<path d="M19.6139 40.4368L19.6139 49.1862L27.1028 53.7834L27.1028 44.7612L19.6139 40.4368Z" fill="#183342"/>
<path d="M15.4144 42.3667L23.2423 46.7679L15.61 51.1161L8.04691 46.6673L15.4144 42.3667Z" fill="#77C0D4"/>
<path d="M23.2263 46.7697L23.2264 55.5666L15.5433 60.0155L15.5433 50.9932L23.2263 46.7697Z" fill="#11778D"/>
<path d="M8.04688 46.6682L8.04688 55.4177L15.5358 60.0148L15.5358 50.9926L8.04688 46.6682Z" fill="#183342"/>
<path d="M15.4144 29.6108L23.2423 34.0121L15.61 38.3603L8.04691 33.9114L15.4144 29.6108Z" fill="#77C0D4"/>
<path d="M23.2265 34.0119L23.2265 42.8088L15.5434 47.2577L15.5434 38.2354L23.2265 34.0119Z" fill="#11778D"/>
<path d="M8.04688 33.9104L8.04688 42.6598L15.5358 47.257L15.5358 38.2348L8.04688 33.9104Z" fill="#183342"/>
<path d="M15.4144 16.562L23.2423 20.9632L15.61 25.3115L8.04691 20.8626L15.4144 16.562Z" fill="#77C0D4"/>
<path d="M23.2265 20.963L23.2265 29.7599L15.5434 34.2088L15.5434 25.1866L23.2265 20.963Z" fill="#11778D"/>
<path d="M8.04688 20.8635L8.04688 29.613L15.5358 34.2101L15.5358 25.1879L8.04688 20.8635Z" fill="#183342"/>
<path d="M15.4144 3.51122L23.2423 7.91245L15.61 12.2607L8.04691 7.8118L15.4144 3.51122Z" fill="#77C0D4"/>
<path d="M23.2265 7.91226L23.2265 16.7092L15.5434 21.158L15.5434 12.1358L23.2265 7.91226Z" fill="#11778D"/>
<path d="M8.04676 7.81274L8.04676 16.5622L15.5357 21.1594L15.5357 12.1371L8.04676 7.81274Z" fill="#183342"/>
<path d="M26.9813 10.0386L34.8092 14.4398L27.1769 18.788L19.6138 14.3391L26.9813 10.0386Z" fill="#77C0D4"/>
<path d="M34.7934 14.4396L34.7934 23.2365L27.1103 27.6854L27.1103 18.6632L34.7934 14.4396Z" fill="#11778D"/>
<path d="M19.6138 14.3381L19.6138 23.0876L27.1027 27.6847L27.1027 18.6625L19.6138 14.3381Z" fill="#183342"/>
<path d="M37.9552 16.564L45.7831 20.9652L38.1508 25.3134L30.5877 20.8645L37.9552 16.564Z" fill="#77C0D4"/>
<path d="M30.5877 20.8635L30.5877 29.613L36.7419 29.613L38.0766 25.1879L30.5877 20.8635Z" fill="#183342"/>
</svg>
