<svg width="381" height="257" viewBox="0 0 381 257" fill="none" xmlns="http://www.w3.org/2000/svg">
<path d="M203.867 41.1316L223.941 52.418L204.369 63.5684L184.975 52.1599L203.867 41.1316Z" fill="#77C0D4"/>
<path d="M223.9 52.4178L223.9 74.9763L204.198 86.3848L204.198 63.2486L223.9 52.4178Z" fill="#11778D"/>
<path d="M184.975 52.1601L184.975 74.5968L204.179 86.3857L204.179 63.2494L184.975 52.1601Z" fill="#183342"/>
<path d="M233.339 57.4236L253.413 68.71L233.841 79.8604L214.447 68.4519L233.339 57.4236Z" fill="#77C0D4"/>
<path d="M253.372 68.7098L253.372 91.2683L233.67 102.677L233.67 79.5406L253.372 68.7098Z" fill="#11778D"/>
<path d="M214.447 68.4511L214.447 90.8878L233.651 102.677L233.651 79.5404L214.447 68.4511Z" fill="#183342"/>
<path d="M204.628 74.5955L224.702 85.8819L205.13 97.0323L185.735 85.6237L204.628 74.5955Z" fill="#77C0D4"/>
<path d="M224.661 85.8807L224.661 108.439L204.959 119.848L204.959 96.7115L224.661 85.8807Z" fill="#11778D"/>
<path d="M185.735 85.622L185.735 108.059L204.939 119.848L204.939 96.7113L185.735 85.622Z" fill="#183342"/>
<path d="M175.727 91.3289L195.8 102.615L176.228 113.766L156.834 102.357L175.727 91.3289Z" fill="#77C0D4"/>
<path d="M195.76 102.616L195.76 125.175L176.058 136.583L176.058 113.447L195.76 102.616Z" fill="#11778D"/>
<path d="M156.834 102.358L156.834 124.795L176.038 136.584L176.038 113.448L156.834 102.358Z" fill="#183342"/>
<path d="M146.065 107.299L166.138 118.585L146.566 129.735L127.172 118.327L146.065 107.299Z" fill="#77C0D4"/>
<path d="M166.098 118.586L166.098 141.144L146.396 152.553L146.396 129.417L166.098 118.586Z" fill="#11778D"/>
<path d="M127.172 118.328L127.172 140.765L146.376 152.554L146.376 129.417L127.172 118.328Z" fill="#183342"/>
<path d="M146.065 74.5955L166.138 85.8819L146.566 97.0323L127.172 85.6237L146.065 74.5955Z" fill="#77C0D4"/>
<path d="M166.098 85.8807L166.098 108.439L146.396 119.848L146.396 96.7115L166.098 85.8807Z" fill="#11778D"/>
<path d="M127.172 85.622L127.172 108.059L146.376 119.848L146.376 96.7113L127.172 85.622Z" fill="#183342"/>
<path d="M146.065 41.1316L166.138 52.418L146.566 63.5684L127.172 52.1599L146.065 41.1316Z" fill="#77C0D4"/>
<path d="M166.098 52.4178L166.098 74.9763L146.396 86.3848L146.396 63.2486L166.098 52.4178Z" fill="#11778D"/>
<path d="M127.172 52.1601L127.172 74.5968L146.376 86.3857L146.376 63.2494L127.172 52.1601Z" fill="#183342"/>
<path d="M146.065 7.66677L166.138 18.9531L146.566 30.1036L127.172 18.695L146.065 7.66677Z" fill="#77C0D4"/>
<path d="M166.097 18.953L166.097 41.5114L146.395 52.92L146.395 29.7837L166.097 18.953Z" fill="#11778D"/>
<path d="M127.172 18.6942L127.172 41.131L146.376 52.9198L146.376 29.7836L127.172 18.6942Z" fill="#183342"/>
<path d="M175.727 24.3992L195.8 35.6856L176.228 46.836L156.834 35.4275L175.727 24.3992Z" fill="#77C0D4"/>
<path d="M195.76 35.6854L195.76 58.2439L176.058 69.6524L176.058 46.5161L195.76 35.6854Z" fill="#11778D"/>
<path d="M156.834 35.4257L156.834 57.8625L176.038 69.6513L176.038 46.515L156.834 35.4257Z" fill="#183342"/>
<path d="M203.868 41.1326L223.941 52.419L204.369 63.5694L184.975 52.1608L203.868 41.1326Z" fill="#77C0D4"/>
<path d="M184.975 52.1591L184.975 74.5959L200.757 74.5959L204.179 63.2484L184.975 52.1591Z" fill="#183342"/>
<g filter="url(#filter0_d_7237_12235)">
<path d="M26.7239 241.672C23.1948 241.672 19.9207 241.119 16.9018 240.014C13.9254 238.866 11.3317 237.25 9.12062 235.167C6.9521 233.083 5.25129 230.638 4.01821 227.832C2.78513 224.983 2.16859 221.858 2.16859 218.456C2.16859 215.055 2.78513 211.951 4.01821 209.144C5.25129 206.296 6.9521 203.829 9.12062 201.746C11.3317 199.662 13.9254 198.068 16.9018 196.962C19.9207 195.814 23.1948 195.24 26.7239 195.24C30.8484 195.24 34.5264 195.963 37.7579 197.409C41.0319 198.854 43.7532 200.938 45.9218 203.659L37.8855 210.93C36.4398 209.229 34.8453 207.933 33.1019 207.04C31.4011 206.147 29.4877 205.7 27.3617 205.7C25.5334 205.7 23.8538 205.998 22.3231 206.593C20.7924 207.188 19.4743 208.06 18.3687 209.208C17.3057 210.314 16.4553 211.653 15.8175 213.226C15.2223 214.8 14.9246 216.543 14.9246 218.456C14.9246 220.37 15.2223 222.113 15.8175 223.686C16.4553 225.259 17.3057 226.62 18.3687 227.768C19.4743 228.874 20.7924 229.724 22.3231 230.319C23.8538 230.915 25.5334 231.212 27.3617 231.212C29.4877 231.212 31.4011 230.766 33.1019 229.873C34.8453 228.98 36.4398 227.683 37.8855 225.982L45.9218 233.253C43.7532 235.932 41.0319 238.015 37.7579 239.504C34.5264 240.949 30.8484 241.672 26.7239 241.672ZM67.2054 241.353C63.4211 241.353 60.062 240.588 57.1281 239.057C54.1942 237.527 51.8769 235.422 50.1761 232.743C48.5178 230.022 47.6887 226.918 47.6887 223.431C47.6887 219.944 48.5178 216.862 50.1761 214.183C51.8769 211.504 54.1942 209.421 57.1281 207.933C60.062 206.402 63.4211 205.636 67.2054 205.636C70.9897 205.636 74.3488 206.402 77.2826 207.933C80.259 209.421 82.5764 211.504 84.2347 214.183C85.893 216.862 86.7221 219.944 86.7221 223.431C86.7221 226.918 85.893 230.022 84.2347 232.743C82.5764 235.422 80.259 237.527 77.2826 239.057C74.3488 240.588 70.9897 241.353 67.2054 241.353ZM67.2054 231.723C68.6085 231.723 69.8416 231.404 70.9046 230.766C72.0101 230.128 72.8818 229.193 73.5196 227.959C74.1574 226.684 74.4763 225.174 74.4763 223.431C74.4763 221.688 74.1574 220.221 73.5196 219.03C72.8818 217.797 72.0101 216.862 70.9046 216.224C69.8416 215.586 68.6085 215.267 67.2054 215.267C65.8447 215.267 64.6117 215.586 63.5061 216.224C62.4431 216.862 61.5715 217.797 60.8911 219.03C60.2533 220.221 59.9344 221.688 59.9344 223.431C59.9344 225.174 60.2533 226.684 60.8911 227.959C61.5715 229.193 62.4431 230.128 63.5061 230.766C64.6117 231.404 65.8447 231.723 67.2054 231.723ZM114.85 205.636C117.529 205.636 119.953 206.189 122.121 207.295C124.29 208.358 125.99 210.016 127.223 212.27C128.499 214.523 129.137 217.436 129.137 221.007V240.779H117.019V222.985C117.019 220.518 116.508 218.733 115.488 217.627C114.51 216.479 113.128 215.905 111.342 215.905C110.067 215.905 108.897 216.203 107.834 216.798C106.771 217.351 105.942 218.222 105.347 219.413C104.752 220.604 104.454 222.155 104.454 224.069V240.779H92.3357V206.21H103.88V216.033L101.648 213.163C102.966 210.654 104.773 208.783 107.069 207.55C109.365 206.274 111.959 205.636 114.85 205.636ZM152.18 241.353C147.758 241.353 144.314 240.269 141.848 238.101C139.381 235.889 138.148 232.573 138.148 228.151V198.493H150.267V228.023C150.267 229.256 150.607 230.234 151.287 230.957C151.967 231.637 152.839 231.978 153.902 231.978C155.348 231.978 156.581 231.616 157.601 230.893L160.599 239.376C159.578 240.056 158.324 240.545 156.836 240.843C155.348 241.183 153.796 241.353 152.18 241.353ZM133.11 216.543V207.486H158.175V216.543H133.11ZM165.272 240.779V206.21H177.39V240.779H165.272ZM171.331 202.384C169.12 202.384 167.334 201.767 165.973 200.534C164.613 199.301 163.932 197.77 163.932 195.942C163.932 194.114 164.613 192.583 165.973 191.35C167.334 190.117 169.12 189.5 171.331 189.5C173.542 189.5 175.328 190.095 176.688 191.286C178.049 192.434 178.729 193.922 178.729 195.751C178.729 197.664 178.049 199.258 176.688 200.534C175.37 201.767 173.584 202.384 171.331 202.384ZM207.78 205.636C210.459 205.636 212.882 206.189 215.051 207.295C217.219 208.358 218.92 210.016 220.153 212.27C221.429 214.523 222.067 217.436 222.067 221.007V240.779H209.948V222.985C209.948 220.518 209.438 218.733 208.418 217.627C207.44 216.479 206.058 215.905 204.272 215.905C202.996 215.905 201.827 216.203 200.764 216.798C199.701 217.351 198.872 218.222 198.277 219.413C197.681 220.604 197.384 222.155 197.384 224.069V240.779H185.265V206.21H196.81V216.033L194.577 213.163C195.895 210.654 197.702 208.783 199.999 207.55C202.295 206.274 204.888 205.636 207.78 205.636ZM244.217 241.353C241.41 241.353 238.88 240.801 236.627 239.695C234.416 238.59 232.672 236.867 231.397 234.529C230.164 232.148 229.547 229.15 229.547 225.536V206.21H241.665V223.559C241.665 226.237 242.154 228.151 243.132 229.299C244.153 230.447 245.577 231.021 247.406 231.021C248.596 231.021 249.68 230.745 250.658 230.192C251.636 229.639 252.423 228.767 253.018 227.577C253.614 226.344 253.911 224.77 253.911 222.857V206.21H266.029V240.779H254.485V231.021L256.718 233.763C255.527 236.315 253.805 238.228 251.551 239.504C249.298 240.737 246.853 241.353 244.217 241.353ZM288.377 241.353C285.571 241.353 283.041 240.801 280.787 239.695C278.576 238.59 276.833 236.867 275.557 234.529C274.324 232.148 273.707 229.15 273.707 225.536V206.21H285.826V223.559C285.826 226.237 286.315 228.151 287.293 229.299C288.313 230.447 289.738 231.021 291.566 231.021C292.756 231.021 293.841 230.745 294.819 230.192C295.797 229.639 296.583 228.767 297.179 227.577C297.774 226.344 298.071 224.77 298.071 222.857V206.21H310.19V240.779H298.646V231.021L300.878 233.763C299.687 236.315 297.965 238.228 295.712 239.504C293.458 240.737 291.013 241.353 288.377 241.353ZM363.024 205.636C365.703 205.636 368.084 206.189 370.167 207.295C372.293 208.358 373.952 210.016 375.142 212.27C376.375 214.523 376.992 217.436 376.992 221.007V240.779H364.874V222.985C364.874 220.518 364.406 218.733 363.471 217.627C362.535 216.479 361.26 215.905 359.644 215.905C358.496 215.905 357.454 216.181 356.519 216.734C355.583 217.287 354.86 218.137 354.35 219.285C353.84 220.391 353.585 221.837 353.585 223.622V240.779H341.466V222.985C341.466 220.518 340.999 218.733 340.063 217.627C339.17 216.479 337.895 215.905 336.236 215.905C335.046 215.905 333.983 216.181 333.047 216.734C332.155 217.287 331.432 218.137 330.879 219.285C330.369 220.391 330.114 221.837 330.114 223.622V240.779H317.995V206.21H329.54V215.841L327.243 213.099C328.519 210.633 330.262 208.783 332.473 207.55C334.684 206.274 337.151 205.636 339.872 205.636C342.976 205.636 345.697 206.444 348.036 208.06C350.417 209.633 352.011 212.1 352.819 215.459L348.865 214.629C350.098 211.823 351.948 209.633 354.414 208.06C356.922 206.444 359.793 205.636 363.024 205.636Z" fill="white"/>
</g>
<defs>
<filter id="filter0_d_7237_12235" x="0.574076" y="189.5" width="378.012" height="63.3334" filterUnits="userSpaceOnUse" color-interpolation-filters="sRGB">
<feFlood flood-opacity="0" result="BackgroundImageFix"/>
<feColorMatrix in="SourceAlpha" type="matrix" values="0 0 0 0 0 0 0 0 0 0 0 0 0 0 0 0 0 0 127 0" result="hardAlpha"/>
<feOffset dy="9.56702"/>
<feGaussianBlur stdDeviation="0.797252"/>
<feComposite in2="hardAlpha" operator="out"/>
<feColorMatrix type="matrix" values="0 0 0 0 1 0 0 0 0 1 0 0 0 0 1 0 0 0 0.1 0"/>
<feBlend mode="normal" in2="BackgroundImageFix" result="effect1_dropShadow_7237_12235"/>
<feBlend mode="normal" in="SourceGraphic" in2="effect1_dropShadow_7237_12235" result="shape"/>
</filter>
</defs>
</svg>
