<svg width="761" height="512" viewBox="0 0 761 512" fill="none" xmlns="http://www.w3.org/2000/svg">
<path d="M407.154 82.0136L447.179 104.518L408.154 126.751L369.483 104.003L407.154 82.0136Z" fill="#77C0D4"/>
<path d="M447.098 104.518L447.098 149.498L407.814 172.246L407.814 126.114L447.098 104.518Z" fill="#11778D"/>
<path d="M369.483 104.003L369.483 148.741L407.775 172.247L407.775 126.115L369.483 104.003Z" fill="#183342"/>
<path d="M465.919 114.499L505.944 137.003L466.919 159.236L428.248 136.488L465.919 114.499Z" fill="#77C0D4"/>
<path d="M505.863 137.002L505.863 181.982L466.578 204.73L466.578 158.598L505.863 137.002Z" fill="#11778D"/>
<path d="M428.248 136.487L428.248 181.224L466.54 204.73L466.54 158.598L428.248 136.487Z" fill="#183342"/>
<path d="M408.67 148.738L448.695 171.242L409.67 193.476L370.999 170.728L408.67 148.738Z" fill="#77C0D4"/>
<path d="M448.614 171.24L448.614 216.22L409.33 238.968L409.33 192.836L448.614 171.24Z" fill="#11778D"/>
<path d="M370.999 170.724L370.999 215.462L409.291 238.968L409.291 192.836L370.999 170.724Z" fill="#183342"/>
<path d="M351.043 182.103L391.068 204.608L352.043 226.841L313.372 204.093L351.043 182.103Z" fill="#77C0D4"/>
<path d="M390.987 204.609L390.987 249.589L351.703 272.336L351.703 226.204L390.987 204.609Z" fill="#11778D"/>
<path d="M313.372 204.095L313.372 248.833L351.664 272.339L351.664 226.207L313.372 204.095Z" fill="#183342"/>
<path d="M291.899 213.946L331.924 236.45L292.899 258.684L254.228 235.936L291.899 213.946Z" fill="#77C0D4"/>
<path d="M331.843 236.452L331.843 281.432L292.559 304.18L292.559 258.048L331.843 236.452Z" fill="#11778D"/>
<path d="M254.229 235.938L254.229 280.675L292.52 304.181L292.52 258.049L254.229 235.938Z" fill="#183342"/>
<path d="M291.899 148.738L331.924 171.242L292.899 193.476L254.228 170.728L291.899 148.738Z" fill="#77C0D4"/>
<path d="M331.843 171.24L331.843 216.22L292.559 238.968L292.559 192.836L331.843 171.24Z" fill="#11778D"/>
<path d="M254.228 170.724L254.228 215.462L292.52 238.968L292.52 192.836L254.228 170.724Z" fill="#183342"/>
<path d="M291.899 82.0136L331.924 104.518L292.899 126.751L254.228 104.003L291.899 82.0136Z" fill="#77C0D4"/>
<path d="M331.843 104.518L331.843 149.498L292.559 172.246L292.559 126.114L331.843 104.518Z" fill="#11778D"/>
<path d="M254.228 104.003L254.228 148.741L292.52 172.247L292.52 126.115L254.228 104.003Z" fill="#183342"/>
<path d="M291.899 15.287L331.924 37.7912L292.899 60.0244L254.228 37.2766L291.899 15.287Z" fill="#77C0D4"/>
<path d="M331.843 37.7902L331.843 82.7702L292.559 105.518L292.559 59.386L331.843 37.7902Z" fill="#11778D"/>
<path d="M254.228 37.275L254.228 82.0123L292.52 105.518L292.52 59.3863L254.228 37.275Z" fill="#183342"/>
<path d="M351.043 48.6503L391.068 71.1545L352.043 93.3877L313.372 70.6398L351.043 48.6503Z" fill="#77C0D4"/>
<path d="M390.987 71.1535L390.987 116.133L351.703 138.881L351.703 92.7493L390.987 71.1535Z" fill="#11778D"/>
<path d="M313.372 70.6363L313.372 115.374L351.664 138.88L351.664 92.7477L313.372 70.6363Z" fill="#183342"/>
<path d="M407.154 82.0155L447.179 104.52L408.154 126.753L369.483 104.005L407.154 82.0155Z" fill="#77C0D4"/>
<path d="M369.483 104.002L369.483 148.739L400.951 148.739L407.775 126.113L369.483 104.002Z" fill="#183342"/>
<g filter="url(#filter0_d_7237_12408)">
<path d="M53.7855 482.248C46.7486 482.248 40.2204 481.146 34.2009 478.942C28.2661 476.653 23.0944 473.431 18.6857 469.277C14.3619 465.122 10.9706 460.247 8.5119 454.652C6.05322 448.971 4.82388 442.74 4.82388 435.957C4.82388 429.175 6.05322 422.986 8.5119 417.39C10.9706 411.71 14.3619 406.792 18.6857 402.638C23.0944 398.484 28.2661 395.304 34.2009 393.1C40.2204 390.811 46.7486 389.666 53.7855 389.666C62.0094 389.666 69.343 391.108 75.7865 393.99C82.3147 396.873 87.7407 401.027 92.0646 406.453L76.0408 420.951C73.1582 417.559 69.9789 414.974 66.5028 413.193C63.1115 411.413 59.2963 410.523 55.0572 410.523C51.4116 410.523 48.0627 411.116 45.0106 412.303C41.9584 413.49 39.3302 415.228 37.1258 417.517C35.0063 419.721 33.3107 422.392 32.0389 425.529C30.852 428.666 30.2585 432.142 30.2585 435.957C30.2585 439.772 30.852 443.248 32.0389 446.385C33.3107 449.522 35.0063 452.235 37.1258 454.524C39.3302 456.729 41.9584 458.424 45.0106 459.611C48.0627 460.798 51.4116 461.392 55.0572 461.392C59.2963 461.392 63.1115 460.502 66.5028 458.721C69.9789 456.941 73.1582 454.355 76.0408 450.964L92.0646 465.461C87.7407 470.803 82.3147 474.957 75.7865 477.924C69.343 480.807 62.0094 482.248 53.7855 482.248ZM134.503 481.612C126.957 481.612 120.259 480.086 114.409 477.034C108.559 473.982 103.939 469.785 100.547 464.444C97.2409 459.018 95.5877 452.829 95.5877 445.877C95.5877 438.925 97.2409 432.778 100.547 427.437C103.939 422.095 108.559 417.941 114.409 414.974C120.259 411.921 126.957 410.395 134.503 410.395C142.048 410.395 148.746 411.921 154.596 414.974C160.531 417.941 165.151 422.095 168.458 427.437C171.764 432.778 173.418 438.925 173.418 445.877C173.418 452.829 171.764 459.018 168.458 464.444C165.151 469.785 160.531 473.982 154.596 477.034C148.746 480.086 142.048 481.612 134.503 481.612ZM134.503 462.409C137.3 462.409 139.759 461.773 141.879 460.502C144.083 459.23 145.821 457.365 147.093 454.906C148.365 452.363 149 449.353 149 445.877C149 442.401 148.365 439.476 147.093 437.102C145.821 434.643 144.083 432.778 141.879 431.506C139.759 430.234 137.3 429.599 134.503 429.599C131.79 429.599 129.331 430.234 127.127 431.506C125.007 432.778 123.269 434.643 121.913 437.102C120.641 439.476 120.005 442.401 120.005 445.877C120.005 449.353 120.641 452.363 121.913 454.906C123.269 457.365 125.007 459.23 127.127 460.502C129.331 461.773 131.79 462.409 134.503 462.409ZM229.503 410.395C234.844 410.395 239.677 411.498 244.001 413.702C248.325 415.821 251.716 419.128 254.174 423.621C256.718 428.115 257.99 433.922 257.99 441.044V480.468H233.827V444.986C233.827 440.069 232.809 436.508 230.775 434.304C228.825 432.015 226.069 430.87 222.508 430.87C219.965 430.87 217.633 431.464 215.514 432.651C213.394 433.753 211.741 435.491 210.554 437.865C209.367 440.239 208.774 443.333 208.774 447.148V480.468H184.611V411.54H207.629V431.125L203.178 425.402C205.806 420.4 209.41 416.669 213.988 414.211C218.566 411.667 223.738 410.395 229.503 410.395ZM303.936 481.612C295.119 481.612 288.251 479.45 283.334 475.127C278.417 470.718 275.958 464.105 275.958 455.288V396.152H300.121V455.033C300.121 457.492 300.799 459.442 302.155 460.883C303.512 462.24 305.25 462.918 307.37 462.918C310.252 462.918 312.711 462.197 314.746 460.756L320.723 477.67C318.688 479.026 316.187 480.001 313.22 480.595C310.252 481.273 307.158 481.612 303.936 481.612ZM265.911 432.142V414.083H315.89V432.142H265.911ZM330.04 480.468V411.54H354.203V480.468H330.04ZM342.122 403.91C337.713 403.91 334.152 402.68 331.439 400.222C328.726 397.763 327.37 394.711 327.37 391.065C327.37 387.419 328.726 384.367 331.439 381.909C334.152 379.45 337.713 378.221 342.122 378.221C346.53 378.221 350.091 379.408 352.804 381.781C355.517 384.071 356.874 387.038 356.874 390.684C356.874 394.499 355.517 397.678 352.804 400.222C350.176 402.68 346.615 403.91 342.122 403.91ZM414.798 410.395C420.139 410.395 424.972 411.498 429.296 413.702C433.62 415.821 437.011 419.128 439.47 423.621C442.013 428.115 443.285 433.922 443.285 441.044V480.468H419.122V444.986C419.122 440.069 418.105 436.508 416.07 434.304C414.12 432.015 411.364 430.87 407.804 430.87C405.26 430.87 402.929 431.464 400.809 432.651C398.689 433.753 397.036 435.491 395.849 437.865C394.662 440.239 394.069 443.333 394.069 447.148V480.468H369.906V411.54H392.924V431.125L388.473 425.402C391.101 420.4 394.705 416.669 399.283 414.211C403.861 411.667 409.033 410.395 414.798 410.395ZM487.451 481.612C481.855 481.612 476.81 480.51 472.317 478.306C467.908 476.101 464.432 472.668 461.889 468.005C459.43 463.257 458.201 457.28 458.201 450.073V411.54H482.364V446.131C482.364 451.472 483.339 455.288 485.289 457.577C487.323 459.866 490.164 461.01 493.809 461.01C496.183 461.01 498.345 460.459 500.295 459.357C502.245 458.255 503.814 456.517 505 454.143C506.187 451.684 506.781 448.547 506.781 444.732V411.54H530.944V480.468H507.925V461.01L512.377 466.479C510.003 471.566 506.569 475.381 502.076 477.924C497.582 480.383 492.707 481.612 487.451 481.612ZM575.503 481.612C569.907 481.612 564.863 480.51 560.369 478.306C555.961 476.101 552.485 472.668 549.941 468.005C547.483 463.257 546.253 457.28 546.253 450.073V411.54H570.416V446.131C570.416 451.472 571.391 455.288 573.341 457.577C575.376 459.866 578.216 461.01 581.862 461.01C584.236 461.01 586.398 460.459 588.347 459.357C590.297 458.255 591.866 456.517 593.053 454.143C594.24 451.684 594.833 448.547 594.833 444.732V411.54H618.996V480.468H595.978V461.01L600.429 466.479C598.055 471.566 594.621 475.381 590.128 477.924C585.634 480.383 580.76 481.612 575.503 481.612ZM724.344 410.395C729.685 410.395 734.433 411.498 738.588 413.702C742.827 415.821 746.133 419.128 748.507 423.621C750.966 428.115 752.195 433.922 752.195 441.044V480.468H728.032V444.986C728.032 440.069 727.1 436.508 725.234 434.304C723.369 432.015 720.826 430.87 717.604 430.87C715.315 430.87 713.238 431.421 711.373 432.524C709.507 433.626 708.066 435.321 707.049 437.61C706.031 439.815 705.523 442.697 705.523 446.258V480.468H681.36V444.986C681.36 440.069 680.427 436.508 678.562 434.304C676.782 432.015 674.238 430.87 670.932 430.87C668.558 430.87 666.438 431.421 664.573 432.524C662.792 433.626 661.351 435.321 660.249 437.61C659.232 439.815 658.723 442.697 658.723 446.258V480.468H634.56V411.54H657.578V430.743L653 425.275C655.544 420.357 659.02 416.669 663.428 414.211C667.837 411.667 672.754 410.395 678.18 410.395C684.369 410.395 689.796 412.006 694.459 415.228C699.206 418.365 702.386 423.282 703.997 429.98L696.112 428.327C698.57 422.731 702.259 418.365 707.176 415.228C712.178 412.006 717.901 410.395 724.344 410.395Z" fill="white"/>
</g>
<defs>
<filter id="filter0_d_7237_12408" x="1.64459" y="378.221" width="753.73" height="126.283" filterUnits="userSpaceOnUse" color-interpolation-filters="sRGB">
<feFlood flood-opacity="0" result="BackgroundImageFix"/>
<feColorMatrix in="SourceAlpha" type="matrix" values="0 0 0 0 0 0 0 0 0 0 0 0 0 0 0 0 0 0 127 0" result="hardAlpha"/>
<feOffset dy="19.076"/>
<feGaussianBlur stdDeviation="1.58966"/>
<feComposite in2="hardAlpha" operator="out"/>
<feColorMatrix type="matrix" values="0 0 0 0 1 0 0 0 0 1 0 0 0 0 1 0 0 0 0.1 0"/>
<feBlend mode="normal" in2="BackgroundImageFix" result="effect1_dropShadow_7237_12408"/>
<feBlend mode="normal" in="SourceGraphic" in2="effect1_dropShadow_7237_12408" result="shape"/>
</filter>
</defs>
</svg>
